%TF.GenerationSoftware,KiCad,Pcbnew,9.0.3*%
%TF.CreationDate,2026-05-16T13:15:34-07:00*%
%TF.ProjectId,JDPDIYDECK,4a445044-4959-4444-9543-4b2e6b696361,rev4*%
%TF.SameCoordinates,Original*%
%TF.FileFunction,Copper,L2,Bot*%
%TF.FilePolarity,Positive*%
%FSLAX46Y46*%
G04 Gerber Fmt 4.6, Leading zero omitted, Abs format (unit mm)*
G04 Created by KiCad (PCBNEW 9.0.3) date 2026-05-16 13:15:34*
%MOMM*%
%LPD*%
G01*
G04 APERTURE LIST*
G04 Aperture macros list*
%AMRoundRect*
0 Rectangle with rounded corners*
0 $1 Rounding radius*
0 $2 $3 $4 $5 $6 $7 $8 $9 X,Y pos of 4 corners*
0 Add a 4 corners polygon primitive as box body*
4,1,4,$2,$3,$4,$5,$6,$7,$8,$9,$2,$3,0*
0 Add four circle primitives for the rounded corners*
1,1,$1+$1,$2,$3*
1,1,$1+$1,$4,$5*
1,1,$1+$1,$6,$7*
1,1,$1+$1,$8,$9*
0 Add four rect primitives between the rounded corners*
20,1,$1+$1,$2,$3,$4,$5,0*
20,1,$1+$1,$4,$5,$6,$7,0*
20,1,$1+$1,$6,$7,$8,$9,0*
20,1,$1+$1,$8,$9,$2,$3,0*%
G04 Aperture macros list end*
%TA.AperFunction,ComponentPad*%
%ADD10C,1.800000*%
%TD*%
%TA.AperFunction,ComponentPad*%
%ADD11RoundRect,0.249630X0.535370X-0.895370X0.535370X0.895370X-0.535370X0.895370X-0.535370X-0.895370X0*%
%TD*%
%TA.AperFunction,ComponentPad*%
%ADD12O,1.570000X2.290000*%
%TD*%
%TA.AperFunction,ComponentPad*%
%ADD13C,1.600000*%
%TD*%
%TA.AperFunction,ComponentPad*%
%ADD14R,1.371600X1.371600*%
%TD*%
%TA.AperFunction,ComponentPad*%
%ADD15C,1.371600*%
%TD*%
%TA.AperFunction,ComponentPad*%
%ADD16C,4.400000*%
%TD*%
%TA.AperFunction,ComponentPad*%
%ADD17C,1.150000*%
%TD*%
%TA.AperFunction,ComponentPad*%
%ADD18RoundRect,0.249630X-0.535370X0.895370X-0.535370X-0.895370X0.535370X-0.895370X0.535370X0.895370X0*%
%TD*%
%TA.AperFunction,ComponentPad*%
%ADD19RoundRect,0.250000X-0.550000X-0.550000X0.550000X-0.550000X0.550000X0.550000X-0.550000X0.550000X0*%
%TD*%
%TA.AperFunction,ComponentPad*%
%ADD20R,1.700000X1.700000*%
%TD*%
%TA.AperFunction,ComponentPad*%
%ADD21C,1.700000*%
%TD*%
%TA.AperFunction,ViaPad*%
%ADD22C,0.600000*%
%TD*%
%TA.AperFunction,Conductor*%
%ADD23C,1.000000*%
%TD*%
%TA.AperFunction,Conductor*%
%ADD24C,0.500000*%
%TD*%
G04 APERTURE END LIST*
D10*
%TO.P,REF\u002A\u002A292,1*%
%TO.N,N/C*%
X143510000Y-132080000D03*
%TD*%
%TO.P,REF\u002A\u002A278,1*%
%TO.N,N/C*%
X158750000Y-129540000D03*
%TD*%
%TO.P,REF\u002A\u002A127,1*%
%TO.N,N/C*%
X130810000Y-111760000D03*
%TD*%
%TO.P,REF\u002A\u002A383,1*%
%TO.N,GND*%
X123190000Y-144780000D03*
%TD*%
%TO.P,REF\u002A\u002A159,1*%
%TO.N,N/C*%
X161290000Y-114300000D03*
%TD*%
%TO.P,REF\u002A\u002A176,1*%
%TO.N,N/C*%
X153670000Y-116840000D03*
%TD*%
%TO.P,REF\u002A\u002A348,1*%
%TO.N,N/C*%
X133350000Y-139700000D03*
%TD*%
%TO.P,REF\u002A\u002A290,1*%
%TO.N,N/C*%
X138430000Y-132080000D03*
%TD*%
%TO.P,REF\u002A\u002A354,1*%
%TO.N,N/C*%
X148590000Y-139700000D03*
%TD*%
%TO.P,REF\u002A\u002A143,1*%
%TO.N,N/C*%
X171450000Y-111760000D03*
%TD*%
%TO.P,REF\u002A\u002A188,1*%
%TO.N,N/C*%
X133350000Y-119380000D03*
%TD*%
%TO.P,REF\u002A\u002A2,1*%
%TO.N,+3.3V*%
X171450000Y-96520000D03*
%TD*%
%TO.P,REF\u002A\u002A226,1*%
%TO.N,N/C*%
X128270000Y-124460000D03*
%TD*%
D11*
%TO.P,U2,1,A*%
%TO.N,Net-(U2-A)*%
X156524400Y-83413600D03*
D12*
%TO.P,U2,2,K*%
%TO.N,GND*%
X152714400Y-83413600D03*
%TO.P,U2,3,R*%
%TO.N,Net-(U3A-+)*%
X153354400Y-73253600D03*
%TO.P,U2,4,R*%
%TO.N,Net-(C3-Pad2)*%
X155884400Y-73253600D03*
%TD*%
D10*
%TO.P,REF\u002A\u002A162,1*%
%TO.N,N/C*%
X168910000Y-114300000D03*
%TD*%
%TO.P,REF\u002A\u002A260,1*%
%TO.N,N/C*%
X163830000Y-127000000D03*
%TD*%
%TO.P,REF\u002A\u002A68,1*%
%TO.N,N/C*%
X133350000Y-104140000D03*
%TD*%
%TO.P,REF\u002A\u002A78,1*%
%TO.N,N/C*%
X158750000Y-104140000D03*
%TD*%
%TO.P,REF\u002A\u002A230,1*%
%TO.N,N/C*%
X138430000Y-124460000D03*
%TD*%
%TO.P,REF\u002A\u002A158,1*%
%TO.N,N/C*%
X158750000Y-114300000D03*
%TD*%
%TO.P,REF\u002A\u002A31,1*%
%TO.N,N/C*%
X140970000Y-99060000D03*
%TD*%
%TO.P,REF\u002A\u002A17,1*%
%TO.N,+3.3V*%
X158750000Y-96520000D03*
%TD*%
%TO.P,REF\u002A\u002A142,1*%
%TO.N,N/C*%
X168910000Y-111760000D03*
%TD*%
%TO.P,REF\u002A\u002A63,1*%
%TO.N,N/C*%
X171450000Y-101600000D03*
%TD*%
%TO.P,REF\u002A\u002A349,1*%
%TO.N,N/C*%
X135890000Y-139700000D03*
%TD*%
%TO.P,REF\u002A\u002A18,1*%
%TO.N,+3.3V*%
X161290000Y-96520000D03*
%TD*%
%TO.P,REF\u002A\u002A267,1*%
%TO.N,N/C*%
X130810000Y-129540000D03*
%TD*%
D13*
%TO.P,R1,1*%
%TO.N,+3.3V*%
X135432800Y-64719200D03*
%TO.P,R1,2*%
%TO.N,Net-(C1-Pad2)*%
X145592800Y-64719200D03*
%TD*%
D10*
%TO.P,REF\u002A\u002A367,1*%
%TO.N,N/C*%
X130810000Y-142240000D03*
%TD*%
%TO.P,REF\u002A\u002A377,1*%
%TO.N,N/C*%
X156210000Y-142240000D03*
%TD*%
%TO.P,REF\u002A\u002A306,1*%
%TO.N,N/C*%
X128270000Y-134620000D03*
%TD*%
%TO.P,REF\u002A\u002A20,1*%
%TO.N,+3.3V*%
X166370000Y-96520000D03*
%TD*%
%TO.P,REF\u002A\u002A289,1*%
%TO.N,N/C*%
X135890000Y-132080000D03*
%TD*%
%TO.P,REF\u002A\u002A182,1*%
%TO.N,N/C*%
X168910000Y-116840000D03*
%TD*%
%TO.P,REF\u002A\u002A99,1*%
%TO.N,N/C*%
X161290000Y-106680000D03*
%TD*%
%TO.P,REF\u002A\u002A79,1*%
%TO.N,N/C*%
X161290000Y-104140000D03*
%TD*%
%TO.P,REF\u002A\u002A192,1*%
%TO.N,N/C*%
X143510000Y-119380000D03*
%TD*%
%TO.P,REF\u002A\u002A41,1*%
%TO.N,N/C*%
X166370000Y-99060000D03*
%TD*%
%TO.P,REF\u002A\u002A100,1*%
%TO.N,N/C*%
X163830000Y-106680000D03*
%TD*%
%TO.P,REF\u002A\u002A386,1*%
%TO.N,GND*%
X130810000Y-144780000D03*
%TD*%
%TO.P,REF\u002A\u002A98,1*%
%TO.N,N/C*%
X158750000Y-106680000D03*
%TD*%
%TO.P,REF\u002A\u002A325,1*%
%TO.N,N/C*%
X125730000Y-137160000D03*
%TD*%
%TO.P,REF\u002A\u002A107,1*%
%TO.N,N/C*%
X130810000Y-109220000D03*
%TD*%
%TO.P,REF\u002A\u002A362,1*%
%TO.N,N/C*%
X168910000Y-139700000D03*
%TD*%
%TO.P,REF\u002A\u002A240,1*%
%TO.N,N/C*%
X163830000Y-124460000D03*
%TD*%
%TO.P,REF\u002A\u002A51,1*%
%TO.N,N/C*%
X140970000Y-101600000D03*
%TD*%
%TO.P,REF\u002A\u002A76,1*%
%TO.N,N/C*%
X153670000Y-104140000D03*
%TD*%
%TO.P,REF\u002A\u002A71,1*%
%TO.N,N/C*%
X140970000Y-104140000D03*
%TD*%
%TO.P,REF\u002A\u002A169,1*%
%TO.N,N/C*%
X135890000Y-116840000D03*
%TD*%
%TO.P,REF\u002A\u002A368,1*%
%TO.N,N/C*%
X133350000Y-142240000D03*
%TD*%
%TO.P,REF\u002A\u002A179,1*%
%TO.N,N/C*%
X161290000Y-116840000D03*
%TD*%
%TO.P,REF\u002A\u002A262,1*%
%TO.N,N/C*%
X168910000Y-127000000D03*
%TD*%
D13*
%TO.P,R2,1*%
%TO.N,Net-(C1-Pad2)*%
X145592800Y-67767200D03*
%TO.P,R2,2*%
%TO.N,GND*%
X135432800Y-67767200D03*
%TD*%
D10*
%TO.P,REF\u002A\u002A227,1*%
%TO.N,N/C*%
X130810000Y-124460000D03*
%TD*%
D14*
%TO.P,U3,1*%
%TO.N,Net-(U3A--)*%
X145124800Y-70764400D03*
D15*
%TO.P,U3,2,-*%
X142584800Y-70764400D03*
%TO.P,U3,3,+*%
%TO.N,Net-(U3A-+)*%
X140044800Y-70764400D03*
%TO.P,U3,4,V-*%
%TO.N,GND*%
X137504800Y-70764400D03*
%TO.P,U3,5,+*%
%TO.N,/OP2+*%
X137504800Y-78384400D03*
%TO.P,U3,6,-*%
%TO.N,/OP2-*%
X140044800Y-78384400D03*
%TO.P,U3,7*%
%TO.N,/OP2OUT*%
X142584800Y-78384400D03*
%TO.P,U3,8,V+*%
%TO.N,+3.3V*%
X145124800Y-78384400D03*
%TD*%
D10*
%TO.P,REF\u002A\u002A101,1*%
%TO.N,N/C*%
X166370000Y-106680000D03*
%TD*%
%TO.P,REF\u002A\u002A250,1*%
%TO.N,N/C*%
X138430000Y-127000000D03*
%TD*%
%TO.P,REF\u002A\u002A195,1*%
%TO.N,N/C*%
X151130000Y-119380000D03*
%TD*%
%TO.P,REF\u002A\u002A346,1*%
%TO.N,N/C*%
X128270000Y-139700000D03*
%TD*%
%TO.P,REF\u002A\u002A65,1*%
%TO.N,N/C*%
X125730000Y-104140000D03*
%TD*%
%TO.P,RV1,1,1*%
%TO.N,Net-(C4-Pad2)*%
X133847200Y-81918800D03*
%TO.P,RV1,2,2*%
%TO.N,/Adafruit_2130_A+*%
X133847200Y-84418800D03*
%TO.P,RV1,3,3*%
%TO.N,GND*%
X133847200Y-86918800D03*
D16*
%TO.P,RV1,MP*%
%TO.N,N/C*%
X126847200Y-88818800D03*
X126847200Y-80018800D03*
%TD*%
D10*
%TO.P,REF\u002A\u002A129,1*%
%TO.N,N/C*%
X135890000Y-111760000D03*
%TD*%
%TO.P,REF\u002A\u002A174,1*%
%TO.N,N/C*%
X148590000Y-116840000D03*
%TD*%
%TO.P,REF\u002A\u002A364,1*%
%TO.N,N/C*%
X123190000Y-142240000D03*
%TD*%
%TO.P,REF\u002A\u002A293,1*%
%TO.N,N/C*%
X146050000Y-132080000D03*
%TD*%
%TO.P,REF\u002A\u002A330,1*%
%TO.N,N/C*%
X138430000Y-137160000D03*
%TD*%
%TO.P,REF\u002A\u002A389,1*%
%TO.N,GND*%
X138430000Y-144780000D03*
%TD*%
%TO.P,REF\u002A\u002A249,1*%
%TO.N,N/C*%
X135890000Y-127000000D03*
%TD*%
%TO.P,REF\u002A\u002A245,1*%
%TO.N,N/C*%
X125730000Y-127000000D03*
%TD*%
%TO.P,REF\u002A\u002A52,1*%
%TO.N,N/C*%
X143510000Y-101600000D03*
%TD*%
%TO.P,REF\u002A\u002A357,1*%
%TO.N,N/C*%
X156210000Y-139700000D03*
%TD*%
%TO.P,REF\u002A\u002A148,1*%
%TO.N,N/C*%
X133350000Y-114300000D03*
%TD*%
%TO.P,REF\u002A\u002A73,1*%
%TO.N,N/C*%
X146050000Y-104140000D03*
%TD*%
%TO.P,REF\u002A\u002A233,1*%
%TO.N,N/C*%
X146050000Y-124460000D03*
%TD*%
%TO.P,REF\u002A\u002A194,1*%
%TO.N,N/C*%
X148590000Y-119380000D03*
%TD*%
%TO.P,REF\u002A\u002A211,1*%
%TO.N,N/C*%
X140970000Y-121920000D03*
%TD*%
%TO.P,REF\u002A\u002A94,1*%
%TO.N,N/C*%
X148590000Y-106680000D03*
%TD*%
%TO.P,REF\u002A\u002A105,1*%
%TO.N,N/C*%
X125730000Y-109220000D03*
%TD*%
%TO.P,REF\u002A\u002A234,1*%
%TO.N,N/C*%
X148590000Y-124460000D03*
%TD*%
%TO.P,REF\u002A\u002A331,1*%
%TO.N,N/C*%
X140970000Y-137160000D03*
%TD*%
%TO.P,REF\u002A\u002A269,1*%
%TO.N,N/C*%
X135890000Y-129540000D03*
%TD*%
%TO.P,REF\u002A\u002A321,1*%
%TO.N,N/C*%
X166370000Y-134620000D03*
%TD*%
%TO.P,REF\u002A\u002A366,1*%
%TO.N,N/C*%
X128270000Y-142240000D03*
%TD*%
%TO.P,REF\u002A\u002A360,1*%
%TO.N,N/C*%
X163830000Y-139700000D03*
%TD*%
%TO.P,REF\u002A\u002A251,1*%
%TO.N,N/C*%
X140970000Y-127000000D03*
%TD*%
%TO.P,REF\u002A\u002A97,1*%
%TO.N,N/C*%
X156210000Y-106680000D03*
%TD*%
%TO.P,REF\u002A\u002A268,1*%
%TO.N,N/C*%
X133350000Y-129540000D03*
%TD*%
%TO.P,REF\u002A\u002A402,1*%
%TO.N,N/C*%
X168910000Y-142240000D03*
%TD*%
%TO.P,REF\u002A\u002A196,1*%
%TO.N,N/C*%
X153670000Y-119380000D03*
%TD*%
%TO.P,REF\u002A\u002A181,1*%
%TO.N,N/C*%
X166370000Y-116840000D03*
%TD*%
%TO.P,REF\u002A\u002A337,1*%
%TO.N,N/C*%
X156210000Y-137160000D03*
%TD*%
%TO.P,REF\u002A\u002A141,1*%
%TO.N,N/C*%
X166370000Y-111760000D03*
%TD*%
%TO.P,REF\u002A\u002A82,1*%
%TO.N,N/C*%
X168910000Y-104140000D03*
%TD*%
%TO.P,REF\u002A\u002A395,1*%
%TO.N,GND*%
X153670000Y-144780000D03*
%TD*%
%TO.P,REF\u002A\u002A77,1*%
%TO.N,N/C*%
X156210000Y-104140000D03*
%TD*%
%TO.P,REF\u002A\u002A281,1*%
%TO.N,N/C*%
X166370000Y-129540000D03*
%TD*%
%TO.P,REF\u002A\u002A315,1*%
%TO.N,N/C*%
X151130000Y-134620000D03*
%TD*%
%TO.P,REF\u002A\u002A372,1*%
%TO.N,N/C*%
X143510000Y-142240000D03*
%TD*%
%TO.P,REF\u002A\u002A13,1*%
%TO.N,+3.3V*%
X148590000Y-96520000D03*
%TD*%
%TO.P,REF\u002A\u002A359,1*%
%TO.N,N/C*%
X161290000Y-139700000D03*
%TD*%
%TO.P,REF\u002A\u002A45,1*%
%TO.N,N/C*%
X125730000Y-101600000D03*
%TD*%
%TO.P,REF\u002A\u002A397,1*%
%TO.N,GND*%
X158750000Y-144780000D03*
%TD*%
%TO.P,REF\u002A\u002A151,1*%
%TO.N,N/C*%
X140970000Y-114300000D03*
%TD*%
%TO.P,REF\u002A\u002A53,1*%
%TO.N,N/C*%
X146050000Y-101600000D03*
%TD*%
%TO.P,REF\u002A\u002A204,1*%
%TO.N,N/C*%
X123190000Y-121920000D03*
%TD*%
%TO.P,REF\u002A\u002A342,1*%
%TO.N,N/C*%
X168910000Y-137160000D03*
%TD*%
%TO.P,REF\u002A\u002A229,1*%
%TO.N,N/C*%
X135890000Y-124460000D03*
%TD*%
%TO.P,REF\u002A\u002A244,1*%
%TO.N,N/C*%
X123190000Y-127000000D03*
%TD*%
%TO.P,REF\u002A\u002A25,1*%
%TO.N,N/C*%
X125730000Y-99060000D03*
%TD*%
%TO.P,REF\u002A\u002A316,1*%
%TO.N,N/C*%
X153670000Y-134620000D03*
%TD*%
%TO.P,REF\u002A\u002A286,1*%
%TO.N,N/C*%
X128270000Y-132080000D03*
%TD*%
%TO.P,REF\u002A\u002A4,1*%
%TO.N,+3.3V*%
X125730000Y-96520000D03*
%TD*%
%TO.P,REF\u002A\u002A103,1*%
%TO.N,N/C*%
X171450000Y-106680000D03*
%TD*%
%TO.P,REF\u002A\u002A70,1*%
%TO.N,N/C*%
X138430000Y-104140000D03*
%TD*%
%TO.P,REF\u002A\u002A323,1*%
%TO.N,N/C*%
X171450000Y-134620000D03*
%TD*%
%TO.P,REF\u002A\u002A231,1*%
%TO.N,N/C*%
X140970000Y-124460000D03*
%TD*%
%TO.P,REF\u002A\u002A138,1*%
%TO.N,N/C*%
X158750000Y-111760000D03*
%TD*%
%TO.P,REF\u002A\u002A288,1*%
%TO.N,N/C*%
X133350000Y-132080000D03*
%TD*%
%TO.P,REF\u002A\u002A96,1*%
%TO.N,N/C*%
X153670000Y-106680000D03*
%TD*%
%TO.P,REF\u002A\u002A199,1*%
%TO.N,N/C*%
X161290000Y-119380000D03*
%TD*%
%TO.P,REF\u002A\u002A271,1*%
%TO.N,N/C*%
X140970000Y-129540000D03*
%TD*%
%TO.P,REF\u002A\u002A85,1*%
%TO.N,N/C*%
X125730000Y-106680000D03*
%TD*%
%TO.P,REF\u002A\u002A147,1*%
%TO.N,N/C*%
X130810000Y-114300000D03*
%TD*%
%TO.P,REF\u002A\u002A221,1*%
%TO.N,N/C*%
X166370000Y-121920000D03*
%TD*%
%TO.P,REF\u002A\u002A266,1*%
%TO.N,N/C*%
X128270000Y-129540000D03*
%TD*%
%TO.P,REF\u002A\u002A104,1*%
%TO.N,N/C*%
X123190000Y-109220000D03*
%TD*%
%TO.P,REF\u002A\u002A217,1*%
%TO.N,N/C*%
X156210000Y-121920000D03*
%TD*%
%TO.P,REF\u002A\u002A50,1*%
%TO.N,N/C*%
X138430000Y-101600000D03*
%TD*%
%TO.P,REF\u002A\u002A302,1*%
%TO.N,N/C*%
X168910000Y-132080000D03*
%TD*%
%TO.P,REF\u002A\u002A26,1*%
%TO.N,N/C*%
X128270000Y-99060000D03*
%TD*%
%TO.P,REF\u002A\u002A144,1*%
%TO.N,N/C*%
X123190000Y-114300000D03*
%TD*%
%TO.P,REF\u002A\u002A167,1*%
%TO.N,N/C*%
X130810000Y-116840000D03*
%TD*%
%TO.P,REF\u002A\u002A64,1*%
%TO.N,/OP2OUT*%
X123190000Y-104140000D03*
%TD*%
%TO.P,REF\u002A\u002A257,1*%
%TO.N,N/C*%
X156210000Y-127000000D03*
%TD*%
%TO.P,REF\u002A\u002A297,1*%
%TO.N,N/C*%
X156210000Y-132080000D03*
%TD*%
%TO.P,REF\u002A\u002A272,1*%
%TO.N,N/C*%
X143510000Y-129540000D03*
%TD*%
%TO.P,REF\u002A\u002A390,1*%
%TO.N,GND*%
X140970000Y-144780000D03*
%TD*%
%TO.P,REF\u002A\u002A154,1*%
%TO.N,N/C*%
X148590000Y-114300000D03*
%TD*%
%TO.P,REF\u002A\u002A322,1*%
%TO.N,N/C*%
X168910000Y-134620000D03*
%TD*%
D17*
%TO.P,C4,1*%
%TO.N,Net-(U3A--)*%
X145846800Y-81889600D03*
%TO.P,C4,2*%
%TO.N,Net-(C4-Pad2)*%
X140846800Y-81889600D03*
%TD*%
D10*
%TO.P,REF\u002A\u002A392,1*%
%TO.N,GND*%
X146050000Y-144780000D03*
%TD*%
%TO.P,REF\u002A\u002A7,1*%
%TO.N,+3.3V*%
X133350000Y-96520000D03*
%TD*%
%TO.P,REF\u002A\u002A22,1*%
%TO.N,+3.3V*%
X123190000Y-96520000D03*
%TD*%
%TO.P,REF\u002A\u002A165,1*%
%TO.N,N/C*%
X125730000Y-116840000D03*
%TD*%
%TO.P,REF\u002A\u002A388,1*%
%TO.N,GND*%
X135890000Y-144780000D03*
%TD*%
%TO.P,REF\u002A\u002A283,1*%
%TO.N,N/C*%
X171450000Y-129540000D03*
%TD*%
%TO.P,REF\u002A\u002A161,1*%
%TO.N,N/C*%
X166370000Y-114300000D03*
%TD*%
%TO.P,REF\u002A\u002A28,1*%
%TO.N,N/C*%
X133350000Y-99060000D03*
%TD*%
%TO.P,REF\u002A\u002A163,1*%
%TO.N,N/C*%
X171450000Y-114300000D03*
%TD*%
%TO.P,REF\u002A\u002A394,1*%
%TO.N,GND*%
X151130000Y-144780000D03*
%TD*%
%TO.P,REF\u002A\u002A276,1*%
%TO.N,N/C*%
X153670000Y-129540000D03*
%TD*%
%TO.P,REF\u002A\u002A175,1*%
%TO.N,N/C*%
X151130000Y-116840000D03*
%TD*%
%TO.P,REF\u002A\u002A108,1*%
%TO.N,N/C*%
X133350000Y-109220000D03*
%TD*%
%TO.P,REF\u002A\u002A265,1*%
%TO.N,N/C*%
X125730000Y-129540000D03*
%TD*%
%TO.P,REF\u002A\u002A261,1*%
%TO.N,N/C*%
X166370000Y-127000000D03*
%TD*%
%TO.P,REF\u002A\u002A218,1*%
%TO.N,N/C*%
X158750000Y-121920000D03*
%TD*%
%TO.P,REF\u002A\u002A48,1*%
%TO.N,N/C*%
X133350000Y-101600000D03*
%TD*%
%TO.P,REF\u002A\u002A69,1*%
%TO.N,N/C*%
X135890000Y-104140000D03*
%TD*%
%TO.P,REF\u002A\u002A125,1*%
%TO.N,N/C*%
X125730000Y-111760000D03*
%TD*%
%TO.P,REF\u002A\u002A396,1*%
%TO.N,GND*%
X156210000Y-144780000D03*
%TD*%
%TO.P,REF\u002A\u002A81,1*%
%TO.N,N/C*%
X166370000Y-104140000D03*
%TD*%
%TO.P,REF\u002A\u002A304,1*%
%TO.N,N/C*%
X123190000Y-134620000D03*
%TD*%
%TO.P,REF\u002A\u002A10,1*%
%TO.N,+3.3V*%
X140970000Y-96520000D03*
%TD*%
%TO.P,REF\u002A\u002A145,1*%
%TO.N,N/C*%
X125730000Y-114300000D03*
%TD*%
%TO.P,REF\u002A\u002A376,1*%
%TO.N,N/C*%
X153670000Y-142240000D03*
%TD*%
%TO.P,REF\u002A\u002A189,1*%
%TO.N,N/C*%
X135890000Y-119380000D03*
%TD*%
%TO.P,REF\u002A\u002A295,1*%
%TO.N,N/C*%
X151130000Y-132080000D03*
%TD*%
%TO.P,REF\u002A\u002A236,1*%
%TO.N,N/C*%
X153670000Y-124460000D03*
%TD*%
%TO.P,REF\u002A\u002A373,1*%
%TO.N,N/C*%
X146050000Y-142240000D03*
%TD*%
%TO.P,REF\u002A\u002A222,1*%
%TO.N,N/C*%
X168910000Y-121920000D03*
%TD*%
%TO.P,REF\u002A\u002A273,1*%
%TO.N,N/C*%
X146050000Y-129540000D03*
%TD*%
%TO.P,REF\u002A\u002A238,1*%
%TO.N,N/C*%
X158750000Y-124460000D03*
%TD*%
%TO.P,REF\u002A\u002A173,1*%
%TO.N,N/C*%
X146050000Y-116840000D03*
%TD*%
%TO.P,REF\u002A\u002A171,1*%
%TO.N,N/C*%
X140970000Y-116840000D03*
%TD*%
%TO.P,REF\u002A\u002A235,1*%
%TO.N,N/C*%
X151130000Y-124460000D03*
%TD*%
%TO.P,REF\u002A\u002A328,1*%
%TO.N,N/C*%
X133350000Y-137160000D03*
%TD*%
%TO.P,REF\u002A\u002A140,1*%
%TO.N,N/C*%
X163830000Y-111760000D03*
%TD*%
D18*
%TO.P,U1,1,A*%
%TO.N,Net-(U1-A)*%
X152714400Y-57099200D03*
D12*
%TO.P,U1,2,K*%
%TO.N,GND*%
X156524400Y-57099200D03*
%TO.P,U1,3,R*%
%TO.N,Net-(C3-Pad2)*%
X155884400Y-67259200D03*
%TO.P,U1,4,R*%
%TO.N,Net-(C1-Pad2)*%
X153354400Y-67259200D03*
%TD*%
D10*
%TO.P,REF\u002A\u002A164,1*%
%TO.N,N/C*%
X123190000Y-116840000D03*
%TD*%
%TO.P,REF\u002A\u002A116,1*%
%TO.N,N/C*%
X153670000Y-109220000D03*
%TD*%
%TO.P,REF\u002A\u002A247,1*%
%TO.N,N/C*%
X130810000Y-127000000D03*
%TD*%
%TO.P,REF\u002A\u002A380,1*%
%TO.N,N/C*%
X163830000Y-142240000D03*
%TD*%
%TO.P,REF\u002A\u002A264,1*%
%TO.N,N/C*%
X123190000Y-129540000D03*
%TD*%
%TO.P,REF\u002A\u002A361,1*%
%TO.N,N/C*%
X166370000Y-139700000D03*
%TD*%
%TO.P,REF\u002A\u002A298,1*%
%TO.N,N/C*%
X158750000Y-132080000D03*
%TD*%
%TO.P,REF\u002A\u002A382,1*%
%TO.N,GND*%
X171450000Y-144780000D03*
%TD*%
%TO.P,REF\u002A\u002A34,1*%
%TO.N,N/C*%
X148590000Y-99060000D03*
%TD*%
%TO.P,REF\u002A\u002A214,1*%
%TO.N,N/C*%
X148590000Y-121920000D03*
%TD*%
D19*
%TO.P,C6,1*%
%TO.N,+3.3V*%
X129590088Y-68173600D03*
D13*
%TO.P,C6,2*%
%TO.N,GND*%
X131590088Y-68173600D03*
%TD*%
D10*
%TO.P,REF\u002A\u002A320,1*%
%TO.N,N/C*%
X163830000Y-134620000D03*
%TD*%
%TO.P,REF\u002A\u002A314,1*%
%TO.N,N/C*%
X148590000Y-134620000D03*
%TD*%
%TO.P,REF\u002A\u002A312,1*%
%TO.N,N/C*%
X143510000Y-134620000D03*
%TD*%
%TO.P,REF\u002A\u002A333,1*%
%TO.N,N/C*%
X146050000Y-137160000D03*
%TD*%
%TO.P,REF\u002A\u002A67,1*%
%TO.N,N/C*%
X130810000Y-104140000D03*
%TD*%
%TO.P,REF\u002A\u002A42,1*%
%TO.N,N/C*%
X168910000Y-99060000D03*
%TD*%
%TO.P,REF\u002A\u002A27,1*%
%TO.N,N/C*%
X130810000Y-99060000D03*
%TD*%
%TO.P,REF\u002A\u002A58,1*%
%TO.N,N/C*%
X158750000Y-101600000D03*
%TD*%
%TO.P,REF\u002A\u002A356,1*%
%TO.N,N/C*%
X153670000Y-139700000D03*
%TD*%
%TO.P,REF\u002A\u002A294,1*%
%TO.N,N/C*%
X148590000Y-132080000D03*
%TD*%
%TO.P,REF\u002A\u002A21,1*%
%TO.N,+3.3V*%
X168910000Y-96520000D03*
%TD*%
%TO.P,REF\u002A\u002A287,1*%
%TO.N,N/C*%
X130810000Y-132080000D03*
%TD*%
%TO.P,REF\u002A\u002A329,1*%
%TO.N,N/C*%
X135890000Y-137160000D03*
%TD*%
%TO.P,REF\u002A\u002A232,1*%
%TO.N,N/C*%
X143510000Y-124460000D03*
%TD*%
%TO.P,REF\u002A\u002A55,1*%
%TO.N,N/C*%
X151130000Y-101600000D03*
%TD*%
%TO.P,REF\u002A\u002A126,1*%
%TO.N,N/C*%
X128270000Y-111760000D03*
%TD*%
%TO.P,REF\u002A\u002A59,1*%
%TO.N,N/C*%
X161290000Y-101600000D03*
%TD*%
%TO.P,REF\u002A\u002A291,1*%
%TO.N,N/C*%
X140970000Y-132080000D03*
%TD*%
%TO.P,REF\u002A\u002A198,1*%
%TO.N,N/C*%
X158750000Y-119380000D03*
%TD*%
%TO.P,REF\u002A\u002A39,1*%
%TO.N,N/C*%
X161290000Y-99060000D03*
%TD*%
%TO.P,REF\u002A\u002A223,1*%
%TO.N,N/C*%
X171450000Y-121920000D03*
%TD*%
%TO.P,REF\u002A\u002A11,1*%
%TO.N,+3.3V*%
X143510000Y-96520000D03*
%TD*%
%TO.P,REF\u002A\u002A172,1*%
%TO.N,N/C*%
X143510000Y-116840000D03*
%TD*%
%TO.P,REF\u002A\u002A310,1*%
%TO.N,N/C*%
X138430000Y-134620000D03*
%TD*%
%TO.P,REF\u002A\u002A206,1*%
%TO.N,N/C*%
X128270000Y-121920000D03*
%TD*%
%TO.P,REF\u002A\u002A237,1*%
%TO.N,N/C*%
X156210000Y-124460000D03*
%TD*%
%TO.P,REF\u002A\u002A399,1*%
%TO.N,GND*%
X163830000Y-144780000D03*
%TD*%
%TO.P,REF\u002A\u002A135,1*%
%TO.N,N/C*%
X151130000Y-111760000D03*
%TD*%
%TO.P,REF\u002A\u002A87,1*%
%TO.N,N/C*%
X130810000Y-106680000D03*
%TD*%
%TO.P,REF\u002A\u002A358,1*%
%TO.N,N/C*%
X158750000Y-139700000D03*
%TD*%
%TO.P,REF\u002A\u002A303,1*%
%TO.N,N/C*%
X171450000Y-132080000D03*
%TD*%
%TO.P,REF\u002A\u002A61,1*%
%TO.N,N/C*%
X166370000Y-101600000D03*
%TD*%
%TO.P,REF\u002A\u002A387,1*%
%TO.N,GND*%
X133350000Y-144780000D03*
%TD*%
%TO.P,REF\u002A\u002A110,1*%
%TO.N,N/C*%
X138430000Y-109220000D03*
%TD*%
%TO.P,REF\u002A\u002A341,1*%
%TO.N,N/C*%
X166370000Y-137160000D03*
%TD*%
%TO.P,REF\u002A\u002A378,1*%
%TO.N,N/C*%
X158750000Y-142240000D03*
%TD*%
%TO.P,REF\u002A\u002A324,1*%
%TO.N,N/C*%
X123190000Y-137160000D03*
%TD*%
%TO.P,REF\u002A\u002A83,1*%
%TO.N,N/C*%
X171450000Y-104140000D03*
%TD*%
%TO.P,REF\u002A\u002A90,1*%
%TO.N,N/C*%
X138430000Y-106680000D03*
%TD*%
%TO.P,REF\u002A\u002A170,1*%
%TO.N,N/C*%
X138430000Y-116840000D03*
%TD*%
%TO.P,REF\u002A\u002A350,1*%
%TO.N,N/C*%
X138430000Y-139700000D03*
%TD*%
%TO.P,REF\u002A\u002A258,1*%
%TO.N,N/C*%
X158750000Y-127000000D03*
%TD*%
D13*
%TO.P,R4,1*%
%TO.N,Net-(U2-A)*%
X145592800Y-54051200D03*
%TO.P,R4,2*%
%TO.N,/PWM2*%
X135432800Y-54051200D03*
%TD*%
D10*
%TO.P,REF\u002A\u002A128,1*%
%TO.N,N/C*%
X133350000Y-111760000D03*
%TD*%
%TO.P,REF\u002A\u002A212,1*%
%TO.N,N/C*%
X143510000Y-121920000D03*
%TD*%
%TO.P,REF\u002A\u002A121,1*%
%TO.N,N/C*%
X166370000Y-109220000D03*
%TD*%
%TO.P,REF\u002A\u002A113,1*%
%TO.N,N/C*%
X146050000Y-109220000D03*
%TD*%
%TO.P,REF\u002A\u002A374,1*%
%TO.N,N/C*%
X148590000Y-142240000D03*
%TD*%
%TO.P,REF\u002A\u002A62,1*%
%TO.N,N/C*%
X168910000Y-101600000D03*
%TD*%
%TO.P,REF\u002A\u002A155,1*%
%TO.N,N/C*%
X151130000Y-114300000D03*
%TD*%
%TO.P,REF\u002A\u002A208,1*%
%TO.N,N/C*%
X133350000Y-121920000D03*
%TD*%
%TO.P,REF\u002A\u002A345,1*%
%TO.N,N/C*%
X125730000Y-139700000D03*
%TD*%
%TO.P,REF\u002A\u002A60,1*%
%TO.N,N/C*%
X163830000Y-101600000D03*
%TD*%
%TO.P,REF\u002A\u002A318,1*%
%TO.N,N/C*%
X158750000Y-134620000D03*
%TD*%
%TO.P,REF\u002A\u002A299,1*%
%TO.N,N/C*%
X161290000Y-132080000D03*
%TD*%
%TO.P,REF\u002A\u002A134,1*%
%TO.N,N/C*%
X148590000Y-111760000D03*
%TD*%
%TO.P,REF\u002A\u002A49,1*%
%TO.N,N/C*%
X135890000Y-101600000D03*
%TD*%
%TO.P,REF\u002A\u002A365,1*%
%TO.N,N/C*%
X125730000Y-142240000D03*
%TD*%
%TO.P,REF\u002A\u002A8,1*%
%TO.N,+3.3V*%
X135890000Y-96520000D03*
%TD*%
%TO.P,REF\u002A\u002A16,1*%
%TO.N,+3.3V*%
X156210000Y-96520000D03*
%TD*%
%TO.P,REF\u002A\u002A213,1*%
%TO.N,N/C*%
X146050000Y-121920000D03*
%TD*%
%TO.P,REF\u002A\u002A9,1*%
%TO.N,+3.3V*%
X138430000Y-96520000D03*
%TD*%
%TO.P,REF\u002A\u002A157,1*%
%TO.N,N/C*%
X156210000Y-114300000D03*
%TD*%
%TO.P,REF\u002A\u002A259,1*%
%TO.N,N/C*%
X161290000Y-127000000D03*
%TD*%
%TO.P,REF\u002A\u002A220,1*%
%TO.N,N/C*%
X163830000Y-121920000D03*
%TD*%
%TO.P,REF\u002A\u002A370,1*%
%TO.N,N/C*%
X138430000Y-142240000D03*
%TD*%
%TO.P,REF\u002A\u002A180,1*%
%TO.N,N/C*%
X163830000Y-116840000D03*
%TD*%
%TO.P,REF\u002A\u002A124,1*%
%TO.N,N/C*%
X123190000Y-111760000D03*
%TD*%
%TO.P,REF\u002A\u002A301,1*%
%TO.N,N/C*%
X166370000Y-132080000D03*
%TD*%
%TO.P,REF\u002A\u002A403,1*%
%TO.N,GND*%
X168910000Y-144780000D03*
%TD*%
%TO.P,REF\u002A\u002A400,1*%
%TO.N,GND*%
X166370000Y-144780000D03*
%TD*%
%TO.P,REF\u002A\u002A75,1*%
%TO.N,N/C*%
X151130000Y-104140000D03*
%TD*%
%TO.P,REF\u002A\u002A353,1*%
%TO.N,N/C*%
X146050000Y-139700000D03*
%TD*%
%TO.P,REF\u002A\u002A91,1*%
%TO.N,N/C*%
X140970000Y-106680000D03*
%TD*%
%TO.P,REF\u002A\u002A275,1*%
%TO.N,N/C*%
X151130000Y-129540000D03*
%TD*%
%TO.P,REF\u002A\u002A66,1*%
%TO.N,N/C*%
X128270000Y-104140000D03*
%TD*%
%TO.P,REF\u002A\u002A369,1*%
%TO.N,N/C*%
X135890000Y-142240000D03*
%TD*%
%TO.P,REF\u002A\u002A186,1*%
%TO.N,N/C*%
X128270000Y-119380000D03*
%TD*%
%TO.P,REF\u002A\u002A44,1*%
%TO.N,/OP2-*%
X123190000Y-101600000D03*
%TD*%
%TO.P,REF\u002A\u002A219,1*%
%TO.N,N/C*%
X161290000Y-121920000D03*
%TD*%
%TO.P,REF\u002A\u002A210,1*%
%TO.N,N/C*%
X138430000Y-121920000D03*
%TD*%
%TO.P,REF\u002A\u002A248,1*%
%TO.N,N/C*%
X133350000Y-127000000D03*
%TD*%
%TO.P,REF\u002A\u002A117,1*%
%TO.N,N/C*%
X156210000Y-109220000D03*
%TD*%
D13*
%TO.P,R3,1*%
%TO.N,Net-(U1-A)*%
X145592800Y-57099200D03*
%TO.P,R3,2*%
%TO.N,/PWM1*%
X135432800Y-57099200D03*
%TD*%
D10*
%TO.P,REF\u002A\u002A393,1*%
%TO.N,GND*%
X148590000Y-144780000D03*
%TD*%
%TO.P,REF\u002A\u002A122,1*%
%TO.N,N/C*%
X168910000Y-109220000D03*
%TD*%
%TO.P,REF\u002A\u002A37,1*%
%TO.N,N/C*%
X156210000Y-99060000D03*
%TD*%
%TO.P,REF\u002A\u002A351,1*%
%TO.N,N/C*%
X140970000Y-139700000D03*
%TD*%
%TO.P,REF\u002A\u002A33,1*%
%TO.N,N/C*%
X146050000Y-99060000D03*
%TD*%
%TO.P,REF\u002A\u002A282,1*%
%TO.N,N/C*%
X168910000Y-129540000D03*
%TD*%
%TO.P,REF\u002A\u002A102,1*%
%TO.N,N/C*%
X168910000Y-106680000D03*
%TD*%
%TO.P,REF\u002A\u002A190,1*%
%TO.N,N/C*%
X138430000Y-119380000D03*
%TD*%
%TO.P,REF\u002A\u002A56,1*%
%TO.N,N/C*%
X153670000Y-101600000D03*
%TD*%
%TO.P,REF\u002A\u002A184,1*%
%TO.N,N/C*%
X123190000Y-119380000D03*
%TD*%
%TO.P,REF\u002A\u002A385,1*%
%TO.N,GND*%
X128270000Y-144780000D03*
%TD*%
%TO.P,REF\u002A\u002A309,1*%
%TO.N,N/C*%
X135890000Y-134620000D03*
%TD*%
%TO.P,REF\u002A\u002A224,1*%
%TO.N,N/C*%
X123190000Y-124460000D03*
%TD*%
%TO.P,REF\u002A\u002A384,1*%
%TO.N,GND*%
X125730000Y-144780000D03*
%TD*%
%TO.P,REF\u002A\u002A86,1*%
%TO.N,N/C*%
X128270000Y-106680000D03*
%TD*%
%TO.P,REF\u002A\u002A246,1*%
%TO.N,N/C*%
X128270000Y-127000000D03*
%TD*%
%TO.P,REF\u002A\u002A391,1*%
%TO.N,GND*%
X143510000Y-144780000D03*
%TD*%
%TO.P,REF\u002A\u002A355,1*%
%TO.N,N/C*%
X151130000Y-139700000D03*
%TD*%
%TO.P,REF\u002A\u002A252,1*%
%TO.N,N/C*%
X143510000Y-127000000D03*
%TD*%
%TO.P,REF\u002A\u002A6,1*%
%TO.N,+3.3V*%
X130810000Y-96520000D03*
%TD*%
%TO.P,REF\u002A\u002A300,1*%
%TO.N,N/C*%
X163830000Y-132080000D03*
%TD*%
%TO.P,REF\u002A\u002A319,1*%
%TO.N,N/C*%
X161290000Y-134620000D03*
%TD*%
%TO.P,REF\u002A\u002A338,1*%
%TO.N,N/C*%
X158750000Y-137160000D03*
%TD*%
%TO.P,REF\u002A\u002A255,1*%
%TO.N,N/C*%
X151130000Y-127000000D03*
%TD*%
%TO.P,REF\u002A\u002A344,1*%
%TO.N,N/C*%
X123190000Y-139700000D03*
%TD*%
%TO.P,REF\u002A\u002A35,1*%
%TO.N,N/C*%
X151130000Y-99060000D03*
%TD*%
%TO.P,REF\u002A\u002A335,1*%
%TO.N,N/C*%
X151130000Y-137160000D03*
%TD*%
%TO.P,REF\u002A\u002A202,1*%
%TO.N,N/C*%
X168910000Y-119380000D03*
%TD*%
%TO.P,REF\u002A\u002A203,1*%
%TO.N,N/C*%
X171450000Y-119380000D03*
%TD*%
%TO.P,REF\u002A\u002A40,1*%
%TO.N,N/C*%
X163830000Y-99060000D03*
%TD*%
%TO.P,REF\u002A\u002A285,1*%
%TO.N,N/C*%
X125730000Y-132080000D03*
%TD*%
%TO.P,REF\u002A\u002A57,1*%
%TO.N,N/C*%
X156210000Y-101600000D03*
%TD*%
%TO.P,REF\u002A\u002A339,1*%
%TO.N,N/C*%
X161290000Y-137160000D03*
%TD*%
%TO.P,REF\u002A\u002A152,1*%
%TO.N,N/C*%
X143510000Y-114300000D03*
%TD*%
%TO.P,REF\u002A\u002A185,1*%
%TO.N,N/C*%
X125730000Y-119380000D03*
%TD*%
D17*
%TO.P,C2,1*%
%TO.N,Net-(U3A-+)*%
X148463000Y-73279000D03*
%TO.P,C2,2*%
%TO.N,GND*%
X148463000Y-78279000D03*
%TD*%
D10*
%TO.P,REF\u002A\u002A88,1*%
%TO.N,N/C*%
X133350000Y-106680000D03*
%TD*%
%TO.P,REF\u002A\u002A15,1*%
%TO.N,+3.3V*%
X153670000Y-96520000D03*
%TD*%
%TO.P,REF\u002A\u002A263,1*%
%TO.N,N/C*%
X171450000Y-127000000D03*
%TD*%
%TO.P,REF\u002A\u002A243,1*%
%TO.N,N/C*%
X171450000Y-124460000D03*
%TD*%
%TO.P,REF\u002A\u002A146,1*%
%TO.N,N/C*%
X128270000Y-114300000D03*
%TD*%
%TO.P,REF\u002A\u002A343,1*%
%TO.N,N/C*%
X171450000Y-137160000D03*
%TD*%
%TO.P,REF\u002A\u002A133,1*%
%TO.N,N/C*%
X146050000Y-111760000D03*
%TD*%
%TO.P,REF\u002A\u002A280,1*%
%TO.N,N/C*%
X163830000Y-129540000D03*
%TD*%
%TO.P,REF\u002A\u002A191,1*%
%TO.N,N/C*%
X140970000Y-119380000D03*
%TD*%
%TO.P,REF\u002A\u002A401,1*%
%TO.N,N/C*%
X166370000Y-142240000D03*
%TD*%
%TO.P,REF\u002A\u002A118,1*%
%TO.N,N/C*%
X158750000Y-109220000D03*
%TD*%
%TO.P,REF\u002A\u002A308,1*%
%TO.N,N/C*%
X133350000Y-134620000D03*
%TD*%
%TO.P,REF\u002A\u002A160,1*%
%TO.N,N/C*%
X163830000Y-114300000D03*
%TD*%
%TO.P,REF\u002A\u002A131,1*%
%TO.N,N/C*%
X140970000Y-111760000D03*
%TD*%
%TO.P,REF\u002A\u002A47,1*%
%TO.N,N/C*%
X130810000Y-101600000D03*
%TD*%
%TO.P,REF\u002A\u002A201,1*%
%TO.N,N/C*%
X166370000Y-119380000D03*
%TD*%
%TO.P,REF\u002A\u002A334,1*%
%TO.N,N/C*%
X148590000Y-137160000D03*
%TD*%
%TO.P,REF\u002A\u002A36,1*%
%TO.N,N/C*%
X153670000Y-99060000D03*
%TD*%
%TO.P,REF\u002A\u002A14,1*%
%TO.N,+3.3V*%
X151130000Y-96520000D03*
%TD*%
D20*
%TO.P,J1,1,Pin_1*%
%TO.N,/PWM2*%
X120827800Y-54178200D03*
D21*
%TO.P,J1,2,Pin_2*%
%TO.N,/PWM1*%
X120827800Y-56718200D03*
%TO.P,J1,3,Pin_3*%
%TO.N,/Audio_in*%
X120827800Y-59258200D03*
%TO.P,J1,4,Pin_4*%
%TO.N,+3.3V*%
X120827800Y-61798200D03*
%TO.P,J1,5,Pin_5*%
%TO.N,GND*%
X120827800Y-64338200D03*
%TD*%
D10*
%TO.P,REF\u002A\u002A178,1*%
%TO.N,N/C*%
X158750000Y-116840000D03*
%TD*%
%TO.P,REF\u002A\u002A177,1*%
%TO.N,N/C*%
X156210000Y-116840000D03*
%TD*%
%TO.P,REF\u002A\u002A30,1*%
%TO.N,N/C*%
X138430000Y-99060000D03*
%TD*%
D17*
%TO.P,C1,1*%
%TO.N,/Audio_in*%
X140846800Y-60909200D03*
%TO.P,C1,2*%
%TO.N,Net-(C1-Pad2)*%
X145846800Y-60909200D03*
%TD*%
D10*
%TO.P,REF\u002A\u002A363,1*%
%TO.N,N/C*%
X171450000Y-139700000D03*
%TD*%
%TO.P,REF\u002A\u002A168,1*%
%TO.N,N/C*%
X133350000Y-116840000D03*
%TD*%
%TO.P,REF\u002A\u002A200,1*%
%TO.N,N/C*%
X163830000Y-119380000D03*
%TD*%
%TO.P,REF\u002A\u002A209,1*%
%TO.N,N/C*%
X135890000Y-121920000D03*
%TD*%
%TO.P,REF\u002A\u002A242,1*%
%TO.N,N/C*%
X168910000Y-124460000D03*
%TD*%
%TO.P,REF\u002A\u002A307,1*%
%TO.N,N/C*%
X130810000Y-134620000D03*
%TD*%
%TO.P,REF\u002A\u002A317,1*%
%TO.N,N/C*%
X156210000Y-134620000D03*
%TD*%
%TO.P,REF\u002A\u002A24,1*%
%TO.N,/OP2+*%
X123190000Y-99060000D03*
%TD*%
%TO.P,REF\u002A\u002A38,1*%
%TO.N,N/C*%
X158750000Y-99060000D03*
%TD*%
%TO.P,REF\u002A\u002A93,1*%
%TO.N,N/C*%
X146050000Y-106680000D03*
%TD*%
%TO.P,REF\u002A\u002A205,1*%
%TO.N,N/C*%
X125730000Y-121920000D03*
%TD*%
%TO.P,REF\u002A\u002A296,1*%
%TO.N,N/C*%
X153670000Y-132080000D03*
%TD*%
%TO.P,REF\u002A\u002A132,1*%
%TO.N,N/C*%
X143510000Y-111760000D03*
%TD*%
%TO.P,REF\u002A\u002A352,1*%
%TO.N,N/C*%
X143510000Y-139700000D03*
%TD*%
%TO.P,REF\u002A\u002A150,1*%
%TO.N,N/C*%
X138430000Y-114300000D03*
%TD*%
%TO.P,REF\u002A\u002A149,1*%
%TO.N,N/C*%
X135890000Y-114300000D03*
%TD*%
%TO.P,REF\u002A\u002A239,1*%
%TO.N,N/C*%
X161290000Y-124460000D03*
%TD*%
%TO.P,REF\u002A\u002A130,1*%
%TO.N,N/C*%
X138430000Y-111760000D03*
%TD*%
%TO.P,REF\u002A\u002A197,1*%
%TO.N,N/C*%
X156210000Y-119380000D03*
%TD*%
%TO.P,REF\u002A\u002A254,1*%
%TO.N,N/C*%
X148590000Y-127000000D03*
%TD*%
%TO.P,REF\u002A\u002A29,1*%
%TO.N,N/C*%
X135890000Y-99060000D03*
%TD*%
%TO.P,REF\u002A\u002A398,1*%
%TO.N,GND*%
X161290000Y-144780000D03*
%TD*%
%TO.P,REF\u002A\u002A379,1*%
%TO.N,N/C*%
X161290000Y-142240000D03*
%TD*%
%TO.P,REF\u002A\u002A215,1*%
%TO.N,N/C*%
X151130000Y-121920000D03*
%TD*%
%TO.P,REF\u002A\u002A23,1*%
%TO.N,N/C*%
X171450000Y-142240000D03*
%TD*%
%TO.P,REF\u002A\u002A305,1*%
%TO.N,N/C*%
X125730000Y-134620000D03*
%TD*%
%TO.P,REF\u002A\u002A72,1*%
%TO.N,N/C*%
X143510000Y-104140000D03*
%TD*%
%TO.P,REF\u002A\u002A5,1*%
%TO.N,+3.3V*%
X128270000Y-96520000D03*
%TD*%
%TO.P,REF\u002A\u002A106,1*%
%TO.N,N/C*%
X128270000Y-109220000D03*
%TD*%
%TO.P,REF\u002A\u002A139,1*%
%TO.N,N/C*%
X161290000Y-111760000D03*
%TD*%
%TO.P,REF\u002A\u002A54,1*%
%TO.N,N/C*%
X148590000Y-101600000D03*
%TD*%
%TO.P,REF\u002A\u002A193,1*%
%TO.N,N/C*%
X146050000Y-119380000D03*
%TD*%
%TO.P,REF\u002A\u002A241,1*%
%TO.N,N/C*%
X166370000Y-124460000D03*
%TD*%
%TO.P,REF\u002A\u002A109,1*%
%TO.N,N/C*%
X135890000Y-109220000D03*
%TD*%
%TO.P,REF\u002A\u002A274,1*%
%TO.N,N/C*%
X148590000Y-129540000D03*
%TD*%
%TO.P,REF\u002A\u002A183,1*%
%TO.N,N/C*%
X171450000Y-116840000D03*
%TD*%
%TO.P,REF\u002A\u002A336,1*%
%TO.N,N/C*%
X153670000Y-137160000D03*
%TD*%
%TO.P,REF\u002A\u002A228,1*%
%TO.N,N/C*%
X133350000Y-124460000D03*
%TD*%
%TO.P,REF\u002A\u002A89,1*%
%TO.N,N/C*%
X135890000Y-106680000D03*
%TD*%
%TO.P,REF\u002A\u002A326,1*%
%TO.N,N/C*%
X128270000Y-137160000D03*
%TD*%
%TO.P,REF\u002A\u002A156,1*%
%TO.N,N/C*%
X153670000Y-114300000D03*
%TD*%
%TO.P,REF\u002A\u002A279,1*%
%TO.N,N/C*%
X161290000Y-129540000D03*
%TD*%
%TO.P,REF\u002A\u002A32,1*%
%TO.N,N/C*%
X143510000Y-99060000D03*
%TD*%
%TO.P,REF\u002A\u002A95,1*%
%TO.N,N/C*%
X151130000Y-106680000D03*
%TD*%
%TO.P,REF\u002A\u002A137,1*%
%TO.N,N/C*%
X156210000Y-111760000D03*
%TD*%
D13*
%TO.P,C7,1*%
%TO.N,+3.3V*%
X132577200Y-61691200D03*
%TO.P,C7,2*%
%TO.N,GND*%
X132577200Y-64191200D03*
%TD*%
D10*
%TO.P,REF\u002A\u002A371,1*%
%TO.N,N/C*%
X140970000Y-142240000D03*
%TD*%
D20*
%TO.P,J3,1,Pin_1*%
%TO.N,/Adafruit_2130_A+*%
X171652800Y-69463600D03*
D21*
%TO.P,J3,2,Pin_2*%
%TO.N,GND*%
X171652800Y-72003600D03*
%TD*%
D10*
%TO.P,REF\u002A\u002A112,1*%
%TO.N,N/C*%
X143510000Y-109220000D03*
%TD*%
%TO.P,REF\u002A\u002A43,1*%
%TO.N,N/C*%
X171450000Y-99060000D03*
%TD*%
%TO.P,REF\u002A\u002A225,1*%
%TO.N,N/C*%
X125730000Y-124460000D03*
%TD*%
%TO.P,REF\u002A\u002A120,1*%
%TO.N,N/C*%
X163830000Y-109220000D03*
%TD*%
%TO.P,REF\u002A\u002A340,1*%
%TO.N,N/C*%
X163830000Y-137160000D03*
%TD*%
%TO.P,REF\u002A\u002A347,1*%
%TO.N,N/C*%
X130810000Y-139700000D03*
%TD*%
D20*
%TO.P,J2,1,Pin_1*%
%TO.N,GND*%
X171602400Y-64363600D03*
D21*
%TO.P,J2,2,Pin_2*%
%TO.N,+3.3V*%
X171602400Y-61823600D03*
%TO.P,J2,3,Pin_3*%
%TO.N,unconnected-(J2-Pin_3-Pad3)*%
X171602400Y-59283600D03*
%TO.P,J2,4,Pin_4*%
%TO.N,GND*%
X171602400Y-56743600D03*
%TO.P,J2,5,Pin_5*%
%TO.N,/Adafruit_2130_A+*%
X171602400Y-54203600D03*
%TD*%
D10*
%TO.P,REF\u002A\u002A311,1*%
%TO.N,N/C*%
X140970000Y-134620000D03*
%TD*%
%TO.P,REF\u002A\u002A119,1*%
%TO.N,N/C*%
X161290000Y-109220000D03*
%TD*%
%TO.P,REF\u002A\u002A253,1*%
%TO.N,N/C*%
X146050000Y-127000000D03*
%TD*%
%TO.P,REF\u002A\u002A207,1*%
%TO.N,N/C*%
X130810000Y-121920000D03*
%TD*%
%TO.P,REF\u002A\u002A313,1*%
%TO.N,N/C*%
X146050000Y-134620000D03*
%TD*%
%TO.P,REF\u002A\u002A375,1*%
%TO.N,N/C*%
X151130000Y-142240000D03*
%TD*%
%TO.P,REF\u002A\u002A12,1*%
%TO.N,+3.3V*%
X146050000Y-96520000D03*
%TD*%
%TO.P,REF\u002A\u002A216,1*%
%TO.N,N/C*%
X153670000Y-121920000D03*
%TD*%
D17*
%TO.P,C3,1*%
%TO.N,Net-(U3A--)*%
X150895200Y-70256400D03*
%TO.P,C3,2*%
%TO.N,Net-(C3-Pad2)*%
X155895200Y-70256400D03*
%TD*%
D10*
%TO.P,REF\u002A\u002A277,1*%
%TO.N,N/C*%
X156210000Y-129540000D03*
%TD*%
%TO.P,REF\u002A\u002A111,1*%
%TO.N,N/C*%
X140970000Y-109220000D03*
%TD*%
%TO.P,REF\u002A\u002A46,1*%
%TO.N,N/C*%
X128270000Y-101600000D03*
%TD*%
%TO.P,REF\u002A\u002A256,1*%
%TO.N,N/C*%
X153670000Y-127000000D03*
%TD*%
%TO.P,REF\u002A\u002A84,1*%
%TO.N,N/C*%
X123190000Y-106680000D03*
%TD*%
%TO.P,REF\u002A\u002A123,1*%
%TO.N,N/C*%
X171450000Y-109220000D03*
%TD*%
%TO.P,REF\u002A\u002A327,1*%
%TO.N,N/C*%
X130810000Y-137160000D03*
%TD*%
%TO.P,REF\u002A\u002A115,1*%
%TO.N,N/C*%
X151130000Y-109220000D03*
%TD*%
%TO.P,REF\u002A\u002A270,1*%
%TO.N,N/C*%
X138430000Y-129540000D03*
%TD*%
%TO.P,REF\u002A\u002A187,1*%
%TO.N,N/C*%
X130810000Y-119380000D03*
%TD*%
%TO.P,REF\u002A\u002A92,1*%
%TO.N,N/C*%
X143510000Y-106680000D03*
%TD*%
%TO.P,REF\u002A\u002A153,1*%
%TO.N,N/C*%
X146050000Y-114300000D03*
%TD*%
%TO.P,REF\u002A\u002A166,1*%
%TO.N,N/C*%
X128270000Y-116840000D03*
%TD*%
%TO.P,REF\u002A\u002A114,1*%
%TO.N,N/C*%
X148590000Y-109220000D03*
%TD*%
%TO.P,REF\u002A\u002A332,1*%
%TO.N,N/C*%
X143510000Y-137160000D03*
%TD*%
%TO.P,REF\u002A\u002A136,1*%
%TO.N,N/C*%
X153670000Y-111760000D03*
%TD*%
%TO.P,REF\u002A\u002A284,1*%
%TO.N,N/C*%
X123190000Y-132080000D03*
%TD*%
%TO.P,REF\u002A\u002A74,1*%
%TO.N,N/C*%
X148590000Y-104140000D03*
%TD*%
%TO.P,REF\u002A\u002A19,1*%
%TO.N,+3.3V*%
X163830000Y-96520000D03*
%TD*%
%TO.P,REF\u002A\u002A80,1*%
%TO.N,N/C*%
X163830000Y-104140000D03*
%TD*%
D22*
%TO.N,GND*%
X121031000Y-142621000D03*
%TO.N,+3.3V*%
X123291600Y-93469200D03*
%TD*%
D23*
%TO.N,GND*%
X123190000Y-144780000D02*
X171450000Y-144780000D01*
X121031000Y-142621000D02*
X123190000Y-144780000D01*
D24*
%TO.N,Net-(U3A-+)*%
X148463000Y-73279000D02*
X153329000Y-73279000D01*
X153329000Y-73279000D02*
X153354400Y-73253600D01*
D23*
%TO.N,+3.3V*%
X145124800Y-78384400D02*
X146561600Y-76947600D01*
X146561600Y-76947600D02*
X146561600Y-71519768D01*
X156257768Y-61823600D02*
X146561600Y-71519768D01*
X123291600Y-93469200D02*
X123291600Y-96418400D01*
X132817688Y-72201200D02*
X129590088Y-68973600D01*
X123190000Y-96520000D02*
X171450000Y-96520000D01*
X171602400Y-61823600D02*
X156257768Y-61823600D01*
X123291600Y-96418400D02*
X123190000Y-96520000D01*
X145124800Y-78384400D02*
X138941600Y-72201200D01*
X129590088Y-68973600D02*
X129590088Y-68173600D01*
X138941600Y-72201200D02*
X132817688Y-72201200D01*
D24*
%TO.N,/OP2OUT*%
X120113200Y-76441452D02*
X120113200Y-100910800D01*
X142584800Y-78384400D02*
X139762000Y-75561600D01*
X139762000Y-75561600D02*
X120993052Y-75561600D01*
X120113200Y-100910800D02*
X123291600Y-104089200D01*
X120993052Y-75561600D02*
X120113200Y-76441452D01*
%TO.N,/OP2-*%
X120864200Y-99121800D02*
X123291600Y-101549200D01*
X137973000Y-76312600D02*
X121304126Y-76312600D01*
X120864200Y-76752526D02*
X120864200Y-99121800D01*
X140044800Y-78384400D02*
X137973000Y-76312600D01*
X121304126Y-76312600D02*
X120864200Y-76752526D01*
%TO.N,/OP2+*%
X121615200Y-77063600D02*
X121615200Y-97332800D01*
X121615200Y-97332800D02*
X123291600Y-99009200D01*
X137504800Y-78384400D02*
X136184000Y-77063600D01*
X136184000Y-77063600D02*
X121615200Y-77063600D01*
%TD*%
%TA.AperFunction,Conductor*%
%TO.N,GND*%
G36*
X173534139Y-51447185D02*
G01*
X173579894Y-51499989D01*
X173591100Y-51551500D01*
X173591100Y-94416887D01*
X173571415Y-94483926D01*
X173518611Y-94529681D01*
X173467213Y-94540887D01*
X124416213Y-94585520D01*
X124349155Y-94565896D01*
X124303353Y-94513134D01*
X124292100Y-94461520D01*
X124292100Y-93370656D01*
X124253652Y-93177370D01*
X124253651Y-93177369D01*
X124253651Y-93177365D01*
X124217500Y-93090088D01*
X124178235Y-92995292D01*
X124178228Y-92995279D01*
X124068739Y-92831418D01*
X124068736Y-92831414D01*
X123929385Y-92692063D01*
X123929381Y-92692060D01*
X123765520Y-92582571D01*
X123765507Y-92582564D01*
X123583439Y-92507150D01*
X123583429Y-92507147D01*
X123390143Y-92468700D01*
X123390141Y-92468700D01*
X123193059Y-92468700D01*
X123193057Y-92468700D01*
X122999770Y-92507147D01*
X122999760Y-92507150D01*
X122817692Y-92582564D01*
X122817679Y-92582571D01*
X122653818Y-92692060D01*
X122653814Y-92692063D01*
X122577381Y-92768497D01*
X122516058Y-92801982D01*
X122446366Y-92796998D01*
X122390433Y-92755126D01*
X122366016Y-92689662D01*
X122365700Y-92680816D01*
X122365700Y-88667136D01*
X124146700Y-88667136D01*
X124146700Y-88970463D01*
X124180657Y-89271848D01*
X124180660Y-89271862D01*
X124248153Y-89567571D01*
X124248157Y-89567583D01*
X124348333Y-89853868D01*
X124479933Y-90127138D01*
X124479935Y-90127141D01*
X124641308Y-90383964D01*
X124830421Y-90621104D01*
X125044896Y-90835579D01*
X125282036Y-91024692D01*
X125538859Y-91186065D01*
X125812135Y-91317668D01*
X126027151Y-91392905D01*
X126098416Y-91417842D01*
X126098428Y-91417846D01*
X126394137Y-91485340D01*
X126394146Y-91485341D01*
X126394151Y-91485342D01*
X126595074Y-91507980D01*
X126695537Y-91519299D01*
X126695540Y-91519300D01*
X126695543Y-91519300D01*
X126998860Y-91519300D01*
X126998861Y-91519299D01*
X127152894Y-91501944D01*
X127300248Y-91485342D01*
X127300251Y-91485341D01*
X127300263Y-91485340D01*
X127595972Y-91417846D01*
X127882265Y-91317668D01*
X128155541Y-91186065D01*
X128412364Y-91024692D01*
X128649504Y-90835579D01*
X128863979Y-90621104D01*
X129053092Y-90383964D01*
X129214465Y-90127141D01*
X129346068Y-89853865D01*
X129446246Y-89567572D01*
X129513740Y-89271863D01*
X129547700Y-88970457D01*
X129547700Y-88667143D01*
X129513740Y-88365737D01*
X129446246Y-88070028D01*
X129446189Y-88069866D01*
X129443985Y-88063565D01*
X129443984Y-88063564D01*
X129443984Y-88063562D01*
X129397366Y-87930339D01*
X129346068Y-87783735D01*
X129214465Y-87510459D01*
X129053092Y-87253636D01*
X128863979Y-87016496D01*
X128649504Y-86802021D01*
X128412364Y-86612908D01*
X128155541Y-86451535D01*
X128155538Y-86451533D01*
X127882268Y-86319933D01*
X127595983Y-86219757D01*
X127595971Y-86219753D01*
X127367756Y-86167664D01*
X127300263Y-86152260D01*
X127300260Y-86152259D01*
X127300248Y-86152257D01*
X126998863Y-86118300D01*
X126998857Y-86118300D01*
X126695543Y-86118300D01*
X126695536Y-86118300D01*
X126394151Y-86152257D01*
X126394137Y-86152260D01*
X126098428Y-86219753D01*
X126098416Y-86219757D01*
X125812131Y-86319933D01*
X125538861Y-86451533D01*
X125282037Y-86612907D01*
X125044896Y-86802020D01*
X124830420Y-87016496D01*
X124641307Y-87253637D01*
X124479933Y-87510461D01*
X124348333Y-87783731D01*
X124248157Y-88070016D01*
X124248153Y-88070028D01*
X124180660Y-88365737D01*
X124180657Y-88365751D01*
X124146700Y-88667136D01*
X122365700Y-88667136D01*
X122365700Y-77938100D01*
X122385385Y-77871061D01*
X122438189Y-77825306D01*
X122489700Y-77814100D01*
X124933455Y-77814100D01*
X125000494Y-77833785D01*
X125046249Y-77886589D01*
X125056193Y-77955747D01*
X125027168Y-78019303D01*
X125021136Y-78025781D01*
X124830420Y-78216496D01*
X124641307Y-78453637D01*
X124479933Y-78710461D01*
X124348333Y-78983731D01*
X124248157Y-79270016D01*
X124248153Y-79270028D01*
X124180660Y-79565737D01*
X124180657Y-79565751D01*
X124146700Y-79867136D01*
X124146700Y-80170463D01*
X124180657Y-80471848D01*
X124180660Y-80471862D01*
X124248153Y-80767571D01*
X124248157Y-80767583D01*
X124348333Y-81053868D01*
X124479933Y-81327138D01*
X124479935Y-81327141D01*
X124641308Y-81583964D01*
X124782393Y-81760878D01*
X124817538Y-81804950D01*
X124830421Y-81821104D01*
X125044896Y-82035579D01*
X125282036Y-82224692D01*
X125538859Y-82386065D01*
X125812135Y-82517668D01*
X126019517Y-82590234D01*
X126098416Y-82617842D01*
X126098428Y-82617846D01*
X126394137Y-82685340D01*
X126394146Y-82685341D01*
X126394151Y-82685342D01*
X126595074Y-82707980D01*
X126695537Y-82719299D01*
X126695540Y-82719300D01*
X126695543Y-82719300D01*
X126998860Y-82719300D01*
X126998861Y-82719299D01*
X127152894Y-82701944D01*
X127300248Y-82685342D01*
X127300251Y-82685341D01*
X127300263Y-82685340D01*
X127595972Y-82617846D01*
X127882265Y-82517668D01*
X128155541Y-82386065D01*
X128412364Y-82224692D01*
X128649504Y-82035579D01*
X128863979Y-81821104D01*
X128873968Y-81808578D01*
X132446700Y-81808578D01*
X132446700Y-82029022D01*
X132449992Y-82049805D01*
X132481185Y-82246752D01*
X132549303Y-82456403D01*
X132549304Y-82456406D01*
X132649387Y-82652825D01*
X132778952Y-82831158D01*
X132778956Y-82831163D01*
X132934836Y-82987043D01*
X132934841Y-82987047D01*
X133046927Y-83068482D01*
X133089593Y-83123811D01*
X133095572Y-83193425D01*
X133062967Y-83255220D01*
X133046927Y-83269118D01*
X132934841Y-83350552D01*
X132934836Y-83350556D01*
X132778956Y-83506436D01*
X132778952Y-83506441D01*
X132649387Y-83684774D01*
X132549304Y-83881193D01*
X132549303Y-83881196D01*
X132481185Y-84090847D01*
X132446700Y-84308578D01*
X132446700Y-84529021D01*
X132481185Y-84746752D01*
X132549303Y-84956403D01*
X132549304Y-84956406D01*
X132649387Y-85152825D01*
X132778952Y-85331158D01*
X132778956Y-85331163D01*
X132934836Y-85487043D01*
X132934841Y-85487047D01*
X133047351Y-85568790D01*
X133090017Y-85624119D01*
X133095996Y-85693733D01*
X133063391Y-85755528D01*
X133049713Y-85767379D01*
X133049685Y-85767732D01*
X133717790Y-86435837D01*
X133654207Y-86452875D01*
X133540193Y-86518701D01*
X133447101Y-86611793D01*
X133381275Y-86725807D01*
X133364237Y-86789390D01*
X132696132Y-86121285D01*
X132696131Y-86121285D01*
X132649816Y-86185033D01*
X132549767Y-86381389D01*
X132481673Y-86590964D01*
X132447200Y-86808618D01*
X132447200Y-87028981D01*
X132481673Y-87246635D01*
X132549767Y-87456210D01*
X132649811Y-87652556D01*
X132696132Y-87716313D01*
X133364237Y-87048208D01*
X133381275Y-87111793D01*
X133447101Y-87225807D01*
X133540193Y-87318899D01*
X133654207Y-87384725D01*
X133717790Y-87401762D01*
X133049685Y-88069865D01*
X133049685Y-88069866D01*
X133113443Y-88116188D01*
X133309789Y-88216232D01*
X133519364Y-88284326D01*
X133737019Y-88318800D01*
X133957381Y-88318800D01*
X134175035Y-88284326D01*
X134384610Y-88216232D01*
X134580960Y-88116186D01*
X134644713Y-88069866D01*
X134644714Y-88069866D01*
X133976609Y-87401762D01*
X134040193Y-87384725D01*
X134154207Y-87318899D01*
X134247299Y-87225807D01*
X134313125Y-87111793D01*
X134330162Y-87048210D01*
X134998266Y-87716314D01*
X134998266Y-87716313D01*
X135044586Y-87652560D01*
X135144632Y-87456210D01*
X135212726Y-87246635D01*
X135247200Y-87028981D01*
X135247200Y-86808618D01*
X135212726Y-86590964D01*
X135144632Y-86381389D01*
X135044588Y-86185043D01*
X134998266Y-86121285D01*
X134998265Y-86121285D01*
X134330162Y-86789389D01*
X134313125Y-86725807D01*
X134247299Y-86611793D01*
X134154207Y-86518701D01*
X134040193Y-86452875D01*
X133976607Y-86435837D01*
X134644713Y-85767732D01*
X134644596Y-85766250D01*
X134604381Y-85714099D01*
X134598400Y-85644486D01*
X134631005Y-85582690D01*
X134647042Y-85568793D01*
X134759565Y-85487042D01*
X134915442Y-85331165D01*
X135045015Y-85152822D01*
X135145095Y-84956406D01*
X135213215Y-84746751D01*
X135247700Y-84529022D01*
X135247700Y-84308578D01*
X135213215Y-84090849D01*
X135145095Y-83881194D01*
X135145095Y-83881193D01*
X135045013Y-83684775D01*
X134915447Y-83506440D01*
X134759565Y-83350558D01*
X134759557Y-83350552D01*
X134647470Y-83269117D01*
X134604806Y-83213789D01*
X134598827Y-83144176D01*
X134631432Y-83082380D01*
X134647465Y-83068486D01*
X134759565Y-82987042D01*
X134915442Y-82831165D01*
X135045015Y-82652822D01*
X135145095Y-82456406D01*
X135213215Y-82246751D01*
X135247700Y-82029022D01*
X135247700Y-81808578D01*
X135247125Y-81804950D01*
X139771300Y-81804950D01*
X139771300Y-81974249D01*
X139797781Y-82141447D01*
X139850096Y-82302453D01*
X139926952Y-82453288D01*
X140026448Y-82590234D01*
X140026452Y-82590239D01*
X140146160Y-82709947D01*
X140146165Y-82709951D01*
X140265617Y-82796737D01*
X140283115Y-82809450D01*
X140337403Y-82837111D01*
X140433946Y-82886303D01*
X140433948Y-82886303D01*
X140433951Y-82886305D01*
X140520250Y-82914345D01*
X140594952Y-82938618D01*
X140762151Y-82965100D01*
X140762156Y-82965100D01*
X140931449Y-82965100D01*
X141098647Y-82938618D01*
X141259649Y-82886305D01*
X141410485Y-82809450D01*
X141547441Y-82709946D01*
X141667146Y-82590241D01*
X141766650Y-82453285D01*
X141843505Y-82302449D01*
X141895818Y-82141447D01*
X141906586Y-82073459D01*
X141922300Y-81974249D01*
X141922300Y-81804950D01*
X144771300Y-81804950D01*
X144771300Y-81974249D01*
X144797781Y-82141447D01*
X144850096Y-82302453D01*
X144926952Y-82453288D01*
X145026448Y-82590234D01*
X145026452Y-82590239D01*
X145146160Y-82709947D01*
X145146165Y-82709951D01*
X145265617Y-82796737D01*
X145283115Y-82809450D01*
X145337403Y-82837111D01*
X145433946Y-82886303D01*
X145433948Y-82886303D01*
X145433951Y-82886305D01*
X145520250Y-82914345D01*
X145594952Y-82938618D01*
X145762151Y-82965100D01*
X145762156Y-82965100D01*
X145931449Y-82965100D01*
X146011203Y-82952468D01*
X151429400Y-82952468D01*
X151429400Y-83163600D01*
X152391643Y-83163600D01*
X152390319Y-83164924D01*
X152337000Y-83257276D01*
X152309400Y-83360281D01*
X152309400Y-83466919D01*
X152337000Y-83569924D01*
X152390319Y-83662276D01*
X152391643Y-83663600D01*
X151429400Y-83663600D01*
X151429400Y-83874731D01*
X151461041Y-84074505D01*
X151523545Y-84266873D01*
X151615370Y-84447087D01*
X151734259Y-84610722D01*
X151734259Y-84610723D01*
X151877276Y-84753740D01*
X152040912Y-84872629D01*
X152221126Y-84964454D01*
X152413489Y-85026957D01*
X152464400Y-85035020D01*
X152464400Y-83736357D01*
X152465724Y-83737681D01*
X152558076Y-83791000D01*
X152661081Y-83818600D01*
X152767719Y-83818600D01*
X152870724Y-83791000D01*
X152963076Y-83737681D01*
X152964400Y-83736357D01*
X152964400Y-85035019D01*
X153015310Y-85026957D01*
X153207673Y-84964454D01*
X153387887Y-84872629D01*
X153551522Y-84753740D01*
X153551523Y-84753740D01*
X153694540Y-84610723D01*
X153694540Y-84610722D01*
X153813429Y-84447087D01*
X153905254Y-84266873D01*
X153967758Y-84074505D01*
X153999400Y-83874731D01*
X153999400Y-83663600D01*
X153037157Y-83663600D01*
X153038481Y-83662276D01*
X153091800Y-83569924D01*
X153119400Y-83466919D01*
X153119400Y-83360281D01*
X153091800Y-83257276D01*
X153038481Y-83164924D01*
X153037157Y-83163600D01*
X153999400Y-83163600D01*
X153999400Y-82952468D01*
X153967758Y-82752694D01*
X153905254Y-82560326D01*
X153885410Y-82521381D01*
X153858330Y-82468235D01*
X155238900Y-82468235D01*
X155238900Y-84358949D01*
X155238901Y-84358965D01*
X155249396Y-84461693D01*
X155298779Y-84610722D01*
X155304553Y-84628147D01*
X155396610Y-84777395D01*
X155520605Y-84901390D01*
X155669853Y-84993447D01*
X155836308Y-85048604D01*
X155939043Y-85059100D01*
X157109756Y-85059099D01*
X157212492Y-85048604D01*
X157378947Y-84993447D01*
X157528195Y-84901390D01*
X157652190Y-84777395D01*
X157744247Y-84628147D01*
X157799404Y-84461692D01*
X157809900Y-84358957D01*
X157809899Y-82468244D01*
X157799404Y-82365508D01*
X157744247Y-82199053D01*
X157652190Y-82049805D01*
X157528195Y-81925810D01*
X157435475Y-81868620D01*
X157378949Y-81833754D01*
X157378944Y-81833752D01*
X157212492Y-81778596D01*
X157109757Y-81768100D01*
X155939050Y-81768100D01*
X155939034Y-81768101D01*
X155836306Y-81778596D01*
X155669855Y-81833752D01*
X155669850Y-81833754D01*
X155520603Y-81925811D01*
X155396611Y-82049803D01*
X155304554Y-82199050D01*
X155304552Y-82199055D01*
X155249396Y-82365507D01*
X155238900Y-82468235D01*
X153858330Y-82468235D01*
X153813429Y-82380112D01*
X153694540Y-82216477D01*
X153694540Y-82216476D01*
X153551523Y-82073459D01*
X153387887Y-81954570D01*
X153207671Y-81862745D01*
X153015301Y-81800240D01*
X152964400Y-81792178D01*
X152964400Y-83090843D01*
X152963076Y-83089519D01*
X152870724Y-83036200D01*
X152767719Y-83008600D01*
X152661081Y-83008600D01*
X152558076Y-83036200D01*
X152465724Y-83089519D01*
X152464400Y-83090843D01*
X152464400Y-81792178D01*
X152464399Y-81792178D01*
X152413498Y-81800240D01*
X152221128Y-81862745D01*
X152040912Y-81954570D01*
X151877277Y-82073459D01*
X151877276Y-82073459D01*
X151734259Y-82216476D01*
X151734259Y-82216477D01*
X151615370Y-82380112D01*
X151523545Y-82560326D01*
X151461041Y-82752694D01*
X151429400Y-82952468D01*
X146011203Y-82952468D01*
X146098647Y-82938618D01*
X146259649Y-82886305D01*
X146410485Y-82809450D01*
X146547441Y-82709946D01*
X146667146Y-82590241D01*
X146766650Y-82453285D01*
X146843505Y-82302449D01*
X146895818Y-82141447D01*
X146906586Y-82073459D01*
X146922300Y-81974249D01*
X146922300Y-81804950D01*
X146895818Y-81637752D01*
X146843503Y-81476746D01*
X146794816Y-81381194D01*
X146766650Y-81325915D01*
X146753937Y-81308417D01*
X146667151Y-81188965D01*
X146667147Y-81188960D01*
X146547439Y-81069252D01*
X146547434Y-81069248D01*
X146410488Y-80969752D01*
X146410487Y-80969751D01*
X146410485Y-80969750D01*
X146363382Y-80945750D01*
X146259653Y-80892896D01*
X146098647Y-80840581D01*
X145931449Y-80814100D01*
X145931444Y-80814100D01*
X145762156Y-80814100D01*
X145762151Y-80814100D01*
X145594952Y-80840581D01*
X145433946Y-80892896D01*
X145283111Y-80969752D01*
X145146165Y-81069248D01*
X145146160Y-81069252D01*
X145026452Y-81188960D01*
X145026448Y-81188965D01*
X144926952Y-81325911D01*
X144850096Y-81476746D01*
X144797781Y-81637752D01*
X144771300Y-81804950D01*
X141922300Y-81804950D01*
X141895818Y-81637752D01*
X141843503Y-81476746D01*
X141794816Y-81381194D01*
X141766650Y-81325915D01*
X141753937Y-81308417D01*
X141667151Y-81188965D01*
X141667147Y-81188960D01*
X141547439Y-81069252D01*
X141547434Y-81069248D01*
X141410488Y-80969752D01*
X141410487Y-80969751D01*
X141410485Y-80969750D01*
X141363382Y-80945750D01*
X141259653Y-80892896D01*
X141098647Y-80840581D01*
X140931449Y-80814100D01*
X140931444Y-80814100D01*
X140762156Y-80814100D01*
X140762151Y-80814100D01*
X140594952Y-80840581D01*
X140433946Y-80892896D01*
X140283111Y-80969752D01*
X140146165Y-81069248D01*
X140146160Y-81069252D01*
X140026452Y-81188960D01*
X140026448Y-81188965D01*
X139926952Y-81325911D01*
X139850096Y-81476746D01*
X139797781Y-81637752D01*
X139771300Y-81804950D01*
X135247125Y-81804950D01*
X135213215Y-81590849D01*
X135145095Y-81381194D01*
X135145095Y-81381193D01*
X135110437Y-81313175D01*
X135045015Y-81184778D01*
X135028460Y-81161992D01*
X134915447Y-81006441D01*
X134915443Y-81006436D01*
X134759563Y-80850556D01*
X134759558Y-80850552D01*
X134581225Y-80720987D01*
X134581224Y-80720986D01*
X134581222Y-80720985D01*
X134518296Y-80688922D01*
X134384806Y-80620904D01*
X134384803Y-80620903D01*
X134175152Y-80552785D01*
X134066286Y-80535542D01*
X133957422Y-80518300D01*
X133736978Y-80518300D01*
X133664401Y-80529795D01*
X133519247Y-80552785D01*
X133309596Y-80620903D01*
X133309593Y-80620904D01*
X133113174Y-80720987D01*
X132934841Y-80850552D01*
X132934836Y-80850556D01*
X132778956Y-81006436D01*
X132778952Y-81006441D01*
X132649387Y-81184774D01*
X132549304Y-81381193D01*
X132549303Y-81381196D01*
X132481185Y-81590847D01*
X132448021Y-81800240D01*
X132446700Y-81808578D01*
X128873968Y-81808578D01*
X129053092Y-81583964D01*
X129214465Y-81327141D01*
X129346068Y-81053865D01*
X129446246Y-80767572D01*
X129513740Y-80471863D01*
X129547700Y-80170457D01*
X129547700Y-79867143D01*
X129536380Y-79766674D01*
X129513742Y-79565751D01*
X129513741Y-79565746D01*
X129513740Y-79565737D01*
X129446246Y-79270028D01*
X129346068Y-78983735D01*
X129214465Y-78710459D01*
X129053092Y-78453636D01*
X128863979Y-78216496D01*
X128673264Y-78025781D01*
X128639779Y-77964458D01*
X128644763Y-77894766D01*
X128686635Y-77838833D01*
X128752099Y-77814416D01*
X128760945Y-77814100D01*
X135821770Y-77814100D01*
X135888809Y-77833785D01*
X135909451Y-77850419D01*
X136282181Y-78223148D01*
X136315666Y-78284471D01*
X136318500Y-78310829D01*
X136318500Y-78477763D01*
X136346055Y-78651741D01*
X136347711Y-78662193D01*
X136405413Y-78839781D01*
X136490185Y-79006157D01*
X136599941Y-79157222D01*
X136731978Y-79289259D01*
X136883043Y-79399015D01*
X137049419Y-79483787D01*
X137227007Y-79541489D01*
X137411436Y-79570700D01*
X137411437Y-79570700D01*
X137598163Y-79570700D01*
X137598164Y-79570700D01*
X137782593Y-79541489D01*
X137960181Y-79483787D01*
X138126557Y-79399015D01*
X138277622Y-79289259D01*
X138409659Y-79157222D01*
X138519415Y-79006157D01*
X138604187Y-78839781D01*
X138656870Y-78677639D01*
X138696306Y-78619966D01*
X138760665Y-78592767D01*
X138829511Y-78604682D01*
X138880987Y-78651926D01*
X138892728Y-78677636D01*
X138945413Y-78839781D01*
X139030185Y-79006157D01*
X139139941Y-79157222D01*
X139271978Y-79289259D01*
X139423043Y-79399015D01*
X139589419Y-79483787D01*
X139767007Y-79541489D01*
X139951436Y-79570700D01*
X139951437Y-79570700D01*
X140138163Y-79570700D01*
X140138164Y-79570700D01*
X140322593Y-79541489D01*
X140500181Y-79483787D01*
X140666557Y-79399015D01*
X140817622Y-79289259D01*
X140949659Y-79157222D01*
X141059415Y-79006157D01*
X141144187Y-78839781D01*
X141196870Y-78677639D01*
X141236306Y-78619966D01*
X141300665Y-78592767D01*
X141369511Y-78604682D01*
X141420987Y-78651926D01*
X141432728Y-78677636D01*
X141485413Y-78839781D01*
X141570185Y-79006157D01*
X141679941Y-79157222D01*
X141811978Y-79289259D01*
X141963043Y-79399015D01*
X142129419Y-79483787D01*
X142307007Y-79541489D01*
X142491436Y-79570700D01*
X142491437Y-79570700D01*
X142678163Y-79570700D01*
X142678164Y-79570700D01*
X142862593Y-79541489D01*
X143040181Y-79483787D01*
X143206557Y-79399015D01*
X143357622Y-79289259D01*
X143489659Y-79157222D01*
X143599415Y-79006157D01*
X143684187Y-78839781D01*
X143736870Y-78677639D01*
X143776306Y-78619966D01*
X143840665Y-78592767D01*
X143909511Y-78604682D01*
X143960987Y-78651926D01*
X143972728Y-78677636D01*
X144025413Y-78839781D01*
X144110185Y-79006157D01*
X144219941Y-79157222D01*
X144351978Y-79289259D01*
X144503043Y-79399015D01*
X144669419Y-79483787D01*
X144847007Y-79541489D01*
X145031436Y-79570700D01*
X145031437Y-79570700D01*
X145218163Y-79570700D01*
X145218164Y-79570700D01*
X145402593Y-79541489D01*
X145580181Y-79483787D01*
X145746557Y-79399015D01*
X145897622Y-79289259D01*
X146029659Y-79157222D01*
X146139415Y-79006157D01*
X146224187Y-78839781D01*
X146281889Y-78662193D01*
X146281890Y-78662189D01*
X146282298Y-78660933D01*
X146312546Y-78611572D01*
X146729728Y-78194390D01*
X147388000Y-78194390D01*
X147388000Y-78363609D01*
X147414469Y-78530726D01*
X147466760Y-78691659D01*
X147543580Y-78842427D01*
X147544606Y-78843838D01*
X147544607Y-78843839D01*
X148063000Y-78325446D01*
X148063000Y-78331661D01*
X148090259Y-78433394D01*
X148142920Y-78524606D01*
X148217394Y-78599080D01*
X148308606Y-78651741D01*
X148410339Y-78679000D01*
X148416553Y-78679000D01*
X147898159Y-79197391D01*
X147899578Y-79198422D01*
X148050340Y-79275239D01*
X148211273Y-79327530D01*
X148378391Y-79354000D01*
X148547609Y-79354000D01*
X148714726Y-79327530D01*
X148875659Y-79275239D01*
X149026424Y-79198420D01*
X149027839Y-79197391D01*
X148509448Y-78679000D01*
X148515661Y-78679000D01*
X148617394Y-78651741D01*
X148708606Y-78599080D01*
X148783080Y-78524606D01*
X148835741Y-78433394D01*
X148863000Y-78331661D01*
X148863000Y-78325447D01*
X149381391Y-78843839D01*
X149382420Y-78842424D01*
X149459239Y-78691659D01*
X149511530Y-78530726D01*
X149538000Y-78363609D01*
X149538000Y-78194390D01*
X149511530Y-78027273D01*
X149459239Y-77866340D01*
X149382422Y-77715578D01*
X149381391Y-77714159D01*
X148863000Y-78232551D01*
X148863000Y-78226339D01*
X148835741Y-78124606D01*
X148783080Y-78033394D01*
X148708606Y-77958920D01*
X148617394Y-77906259D01*
X148515661Y-77879000D01*
X148509447Y-77879000D01*
X149027839Y-77360607D01*
X149027838Y-77360606D01*
X149026427Y-77359580D01*
X148875659Y-77282760D01*
X148714726Y-77230469D01*
X148547609Y-77204000D01*
X148378391Y-77204000D01*
X148211273Y-77230469D01*
X148050340Y-77282760D01*
X147899575Y-77359579D01*
X147899572Y-77359581D01*
X147898160Y-77360606D01*
X147898160Y-77360607D01*
X148416554Y-77879000D01*
X148410339Y-77879000D01*
X148308606Y-77906259D01*
X148217394Y-77958920D01*
X148142920Y-78033394D01*
X148090259Y-78124606D01*
X148063000Y-78226339D01*
X148063000Y-78232553D01*
X147544607Y-77714160D01*
X147539333Y-77714575D01*
X147536194Y-77730069D01*
X147466760Y-77866340D01*
X147414469Y-78027273D01*
X147388000Y-78194390D01*
X146729728Y-78194390D01*
X147199378Y-77724741D01*
X147199382Y-77724739D01*
X147338029Y-77586092D01*
X147362668Y-77572638D01*
X147378515Y-77525851D01*
X147448232Y-77421514D01*
X147448235Y-77421507D01*
X147473543Y-77360408D01*
X147523650Y-77239437D01*
X147523649Y-77239437D01*
X147523651Y-77239435D01*
X147525341Y-77230942D01*
X147531015Y-77202416D01*
X147549791Y-77108024D01*
X147549791Y-77108020D01*
X147562100Y-77046141D01*
X147562100Y-74197213D01*
X147581785Y-74130174D01*
X147634589Y-74084419D01*
X147703747Y-74074475D01*
X147758985Y-74096895D01*
X147779367Y-74111703D01*
X147899315Y-74198850D01*
X147995425Y-74247820D01*
X148050146Y-74275703D01*
X148050148Y-74275703D01*
X148050151Y-74275705D01*
X148136450Y-74303745D01*
X148211152Y-74328018D01*
X148378351Y-74354500D01*
X148378356Y-74354500D01*
X148547649Y-74354500D01*
X148714847Y-74328018D01*
X148875849Y-74275705D01*
X149026685Y-74198850D01*
X149163641Y-74099346D01*
X149197168Y-74065819D01*
X149258491Y-74032334D01*
X149284849Y-74029500D01*
X152048099Y-74029500D01*
X152115138Y-74049185D01*
X152160893Y-74101989D01*
X152162663Y-74106054D01*
X152163080Y-74107062D01*
X152209849Y-74198850D01*
X152254942Y-74287349D01*
X152373876Y-74451047D01*
X152516953Y-74594124D01*
X152680651Y-74713058D01*
X152860939Y-74804920D01*
X153007065Y-74852399D01*
X153053377Y-74867447D01*
X153253224Y-74899100D01*
X153253229Y-74899100D01*
X153455576Y-74899100D01*
X153655422Y-74867447D01*
X153847861Y-74804920D01*
X154028149Y-74713058D01*
X154191847Y-74594124D01*
X154334924Y-74451047D01*
X154453858Y-74287349D01*
X154508915Y-74179293D01*
X154556890Y-74128498D01*
X154624711Y-74111703D01*
X154690846Y-74134241D01*
X154729884Y-74179293D01*
X154784942Y-74287349D01*
X154903876Y-74451047D01*
X155046953Y-74594124D01*
X155210651Y-74713058D01*
X155390939Y-74804920D01*
X155537065Y-74852399D01*
X155583377Y-74867447D01*
X155783224Y-74899100D01*
X155783229Y-74899100D01*
X155985576Y-74899100D01*
X156185422Y-74867447D01*
X156377861Y-74804920D01*
X156558149Y-74713058D01*
X156721847Y-74594124D01*
X156864924Y-74451047D01*
X156983858Y-74287349D01*
X157075720Y-74107061D01*
X157138247Y-73914622D01*
X157149400Y-73844204D01*
X157169900Y-73714776D01*
X157169900Y-72792423D01*
X157138247Y-72592577D01*
X157105626Y-72492181D01*
X157075720Y-72400139D01*
X156983858Y-72219851D01*
X156864924Y-72056153D01*
X156721847Y-71913076D01*
X156558149Y-71794142D01*
X156377861Y-71702280D01*
X156327953Y-71686064D01*
X156185422Y-71639752D01*
X155985576Y-71608100D01*
X155985571Y-71608100D01*
X155783229Y-71608100D01*
X155783224Y-71608100D01*
X155583377Y-71639752D01*
X155390936Y-71702281D01*
X155210650Y-71794142D01*
X155117254Y-71861998D01*
X155046953Y-71913076D01*
X155046951Y-71913078D01*
X155046950Y-71913078D01*
X154903878Y-72056150D01*
X154903878Y-72056151D01*
X154903876Y-72056153D01*
X154868144Y-72105333D01*
X154784940Y-72219852D01*
X154729884Y-72327906D01*
X154681910Y-72378701D01*
X154614089Y-72395496D01*
X154547954Y-72372958D01*
X154508916Y-72327906D01*
X154453859Y-72219852D01*
X154435992Y-72195260D01*
X154334924Y-72056153D01*
X154191847Y-71913076D01*
X154028149Y-71794142D01*
X153847861Y-71702280D01*
X153797953Y-71686064D01*
X153655422Y-71639752D01*
X153455576Y-71608100D01*
X153455571Y-71608100D01*
X153253229Y-71608100D01*
X153253224Y-71608100D01*
X153053377Y-71639752D01*
X152860936Y-71702281D01*
X152680650Y-71794142D01*
X152587254Y-71861998D01*
X152516953Y-71913076D01*
X152516951Y-71913078D01*
X152516950Y-71913078D01*
X152373878Y-72056150D01*
X152373878Y-72056151D01*
X152373876Y-72056153D01*
X152334866Y-72109846D01*
X152254942Y-72219850D01*
X152163081Y-72400136D01*
X152149213Y-72442818D01*
X152109775Y-72500494D01*
X152045417Y-72527692D01*
X152031282Y-72528500D01*
X149284849Y-72528500D01*
X149217810Y-72508815D01*
X149197168Y-72492181D01*
X149163639Y-72458652D01*
X149163634Y-72458648D01*
X149026688Y-72359152D01*
X149026687Y-72359151D01*
X149026685Y-72359150D01*
X148979582Y-72335150D01*
X148875853Y-72282296D01*
X148714847Y-72229981D01*
X148547649Y-72203500D01*
X148547644Y-72203500D01*
X148378356Y-72203500D01*
X148378351Y-72203500D01*
X148211152Y-72229981D01*
X148050146Y-72282296D01*
X147899311Y-72359152D01*
X147758985Y-72461104D01*
X147693178Y-72484584D01*
X147625125Y-72468758D01*
X147576430Y-72418652D01*
X147562100Y-72360786D01*
X147562100Y-71985550D01*
X147581785Y-71918511D01*
X147598419Y-71897869D01*
X148614292Y-70881996D01*
X149651562Y-69844725D01*
X149712883Y-69811242D01*
X149782575Y-69816226D01*
X149838508Y-69858098D01*
X149862925Y-69923562D01*
X149857172Y-69970725D01*
X149846183Y-70004544D01*
X149846182Y-70004551D01*
X149819700Y-70171750D01*
X149819700Y-70341049D01*
X149846181Y-70508247D01*
X149898496Y-70669253D01*
X149918011Y-70707552D01*
X149972300Y-70814100D01*
X149975352Y-70820088D01*
X150074848Y-70957034D01*
X150074852Y-70957039D01*
X150194560Y-71076747D01*
X150194565Y-71076751D01*
X150259592Y-71123995D01*
X150331515Y-71176250D01*
X150427625Y-71225220D01*
X150482346Y-71253103D01*
X150482348Y-71253103D01*
X150482351Y-71253105D01*
X150568650Y-71281145D01*
X150643352Y-71305418D01*
X150810551Y-71331900D01*
X150810556Y-71331900D01*
X150979849Y-71331900D01*
X151147047Y-71305418D01*
X151308049Y-71253105D01*
X151458885Y-71176250D01*
X151595841Y-71076746D01*
X151715546Y-70957041D01*
X151815050Y-70820085D01*
X151891905Y-70669249D01*
X151944218Y-70508247D01*
X151945640Y-70499269D01*
X151970700Y-70341049D01*
X151970700Y-70171750D01*
X154819700Y-70171750D01*
X154819700Y-70341049D01*
X154846181Y-70508247D01*
X154898496Y-70669253D01*
X154918011Y-70707552D01*
X154972300Y-70814100D01*
X154975352Y-70820088D01*
X155074848Y-70957034D01*
X155074852Y-70957039D01*
X155194560Y-71076747D01*
X155194565Y-71076751D01*
X155259592Y-71123995D01*
X155331515Y-71176250D01*
X155427625Y-71225220D01*
X155482346Y-71253103D01*
X155482348Y-71253103D01*
X155482351Y-71253105D01*
X155568650Y-71281145D01*
X155643352Y-71305418D01*
X155810551Y-71331900D01*
X155810556Y-71331900D01*
X155979849Y-71331900D01*
X156147047Y-71305418D01*
X156308049Y-71253105D01*
X156458885Y-71176250D01*
X156595841Y-71076746D01*
X156715546Y-70957041D01*
X156815050Y-70820085D01*
X156891905Y-70669249D01*
X156944218Y-70508247D01*
X156945640Y-70499269D01*
X156970700Y-70341049D01*
X156970700Y-70171750D01*
X156944218Y-70004552D01*
X156917902Y-69923562D01*
X156891905Y-69843551D01*
X156891903Y-69843548D01*
X156891903Y-69843546D01*
X156848217Y-69757809D01*
X156815050Y-69692715D01*
X156772977Y-69634806D01*
X156715551Y-69555765D01*
X156715547Y-69555760D01*
X156595839Y-69436052D01*
X156595834Y-69436048D01*
X156458888Y-69336552D01*
X156458887Y-69336551D01*
X156458885Y-69336550D01*
X156411782Y-69312550D01*
X156308053Y-69259696D01*
X156147047Y-69207381D01*
X155979849Y-69180900D01*
X155979844Y-69180900D01*
X155810556Y-69180900D01*
X155810551Y-69180900D01*
X155643352Y-69207381D01*
X155482346Y-69259696D01*
X155331511Y-69336552D01*
X155194565Y-69436048D01*
X155194560Y-69436052D01*
X155074852Y-69555760D01*
X155074848Y-69555765D01*
X154975352Y-69692711D01*
X154898496Y-69843546D01*
X154846181Y-70004552D01*
X154819700Y-70171750D01*
X151970700Y-70171750D01*
X151944218Y-70004552D01*
X151917902Y-69923562D01*
X151891905Y-69843551D01*
X151891903Y-69843548D01*
X151891903Y-69843546D01*
X151848217Y-69757809D01*
X151815050Y-69692715D01*
X151772977Y-69634806D01*
X151715551Y-69555765D01*
X151715547Y-69555760D01*
X151595839Y-69436052D01*
X151595834Y-69436048D01*
X151458888Y-69336552D01*
X151458887Y-69336551D01*
X151458885Y-69336550D01*
X151411782Y-69312550D01*
X151308053Y-69259696D01*
X151147047Y-69207381D01*
X150979849Y-69180900D01*
X150979844Y-69180900D01*
X150810556Y-69180900D01*
X150810551Y-69180900D01*
X150643351Y-69207382D01*
X150643344Y-69207383D01*
X150609525Y-69218372D01*
X150539684Y-69220367D01*
X150479851Y-69184286D01*
X150449024Y-69121585D01*
X150456989Y-69052170D01*
X150483524Y-69012763D01*
X151857330Y-67638957D01*
X151918651Y-67605474D01*
X151988343Y-67610458D01*
X152044276Y-67652330D01*
X152068119Y-67715561D01*
X152068137Y-67715559D01*
X152068150Y-67715643D01*
X152068626Y-67716905D01*
X152068898Y-67720368D01*
X152100552Y-67920222D01*
X152134006Y-68023181D01*
X152163080Y-68112661D01*
X152254942Y-68292949D01*
X152373876Y-68456647D01*
X152516953Y-68599724D01*
X152680651Y-68718658D01*
X152860939Y-68810520D01*
X152997669Y-68854946D01*
X153053377Y-68873047D01*
X153253224Y-68904700D01*
X153253229Y-68904700D01*
X153455576Y-68904700D01*
X153655422Y-68873047D01*
X153847861Y-68810520D01*
X154028149Y-68718658D01*
X154191847Y-68599724D01*
X154334924Y-68456647D01*
X154453858Y-68292949D01*
X154508915Y-68184893D01*
X154556890Y-68134098D01*
X154624711Y-68117303D01*
X154690846Y-68139841D01*
X154729884Y-68184893D01*
X154784942Y-68292949D01*
X154903876Y-68456647D01*
X155046953Y-68599724D01*
X155210651Y-68718658D01*
X155390939Y-68810520D01*
X155527669Y-68854946D01*
X155583377Y-68873047D01*
X155783224Y-68904700D01*
X155783229Y-68904700D01*
X155985576Y-68904700D01*
X156185422Y-68873047D01*
X156377861Y-68810520D01*
X156558149Y-68718658D01*
X156721847Y-68599724D01*
X156755836Y-68565735D01*
X170302300Y-68565735D01*
X170302300Y-70361470D01*
X170302301Y-70361476D01*
X170308708Y-70421083D01*
X170359002Y-70555928D01*
X170359006Y-70555935D01*
X170445252Y-70671144D01*
X170445255Y-70671147D01*
X170560464Y-70757393D01*
X170560471Y-70757397D01*
X170605418Y-70774161D01*
X170695317Y-70807691D01*
X170754927Y-70814100D01*
X170765485Y-70814099D01*
X170832523Y-70833779D01*
X170853172Y-70850418D01*
X171523391Y-71520637D01*
X171459807Y-71537675D01*
X171345793Y-71603501D01*
X171252701Y-71696593D01*
X171186875Y-71810607D01*
X171169837Y-71874191D01*
X170537528Y-71241882D01*
X170537527Y-71241882D01*
X170498180Y-71296039D01*
X170401704Y-71485382D01*
X170336042Y-71687469D01*
X170336042Y-71687472D01*
X170302800Y-71897353D01*
X170302800Y-72109846D01*
X170336042Y-72319727D01*
X170336042Y-72319730D01*
X170401704Y-72521817D01*
X170498175Y-72711150D01*
X170537528Y-72765316D01*
X171169837Y-72133008D01*
X171186875Y-72196593D01*
X171252701Y-72310607D01*
X171345793Y-72403699D01*
X171459807Y-72469525D01*
X171523390Y-72486562D01*
X170891082Y-73118869D01*
X170891082Y-73118870D01*
X170945249Y-73158224D01*
X171134582Y-73254695D01*
X171336670Y-73320357D01*
X171546554Y-73353600D01*
X171759046Y-73353600D01*
X171968927Y-73320357D01*
X171968930Y-73320357D01*
X172171017Y-73254695D01*
X172360354Y-73158222D01*
X172414516Y-73118870D01*
X172414517Y-73118870D01*
X171782208Y-72486562D01*
X171845793Y-72469525D01*
X171959807Y-72403699D01*
X172052899Y-72310607D01*
X172118725Y-72196593D01*
X172135762Y-72133009D01*
X172768070Y-72765317D01*
X172768070Y-72765316D01*
X172807422Y-72711154D01*
X172903895Y-72521817D01*
X172969557Y-72319730D01*
X172969557Y-72319727D01*
X173002800Y-72109846D01*
X173002800Y-71897353D01*
X172969557Y-71687472D01*
X172969557Y-71687469D01*
X172903895Y-71485382D01*
X172807424Y-71296049D01*
X172768070Y-71241882D01*
X172768069Y-71241882D01*
X172135762Y-71874190D01*
X172118725Y-71810607D01*
X172052899Y-71696593D01*
X171959807Y-71603501D01*
X171845793Y-71537675D01*
X171782209Y-71520637D01*
X172452427Y-70850418D01*
X172513750Y-70816933D01*
X172540107Y-70814099D01*
X172550672Y-70814099D01*
X172610283Y-70807691D01*
X172745131Y-70757396D01*
X172860346Y-70671146D01*
X172946596Y-70555931D01*
X172996891Y-70421083D01*
X173003300Y-70361473D01*
X173003299Y-68565728D01*
X172996891Y-68506117D01*
X172992252Y-68493680D01*
X172946597Y-68371271D01*
X172946593Y-68371264D01*
X172860347Y-68256055D01*
X172860344Y-68256052D01*
X172745135Y-68169806D01*
X172745128Y-68169802D01*
X172610282Y-68119508D01*
X172610283Y-68119508D01*
X172550683Y-68113101D01*
X172550681Y-68113100D01*
X172550673Y-68113100D01*
X172550664Y-68113100D01*
X170754929Y-68113100D01*
X170754923Y-68113101D01*
X170695316Y-68119508D01*
X170560471Y-68169802D01*
X170560464Y-68169806D01*
X170445255Y-68256052D01*
X170445252Y-68256055D01*
X170359006Y-68371264D01*
X170359002Y-68371271D01*
X170308708Y-68506117D01*
X170304384Y-68546341D01*
X170302301Y-68565723D01*
X170302300Y-68565735D01*
X156755836Y-68565735D01*
X156864924Y-68456647D01*
X156983858Y-68292949D01*
X157075720Y-68112661D01*
X157138247Y-67920222D01*
X157146272Y-67869552D01*
X157169900Y-67720376D01*
X157169900Y-66798023D01*
X157138247Y-66598177D01*
X157105932Y-66498722D01*
X157075720Y-66405739D01*
X156983858Y-66225451D01*
X156864924Y-66061753D01*
X156721847Y-65918676D01*
X156558149Y-65799742D01*
X156558145Y-65799740D01*
X156377863Y-65707881D01*
X156377862Y-65707880D01*
X156377861Y-65707880D01*
X156317292Y-65688200D01*
X156185422Y-65645352D01*
X155985576Y-65613700D01*
X155985571Y-65613700D01*
X155783229Y-65613700D01*
X155783224Y-65613700D01*
X155583377Y-65645352D01*
X155390936Y-65707881D01*
X155210650Y-65799742D01*
X155117254Y-65867598D01*
X155046953Y-65918676D01*
X155046951Y-65918678D01*
X155046950Y-65918678D01*
X154903878Y-66061750D01*
X154903878Y-66061751D01*
X154903876Y-66061753D01*
X154868144Y-66110933D01*
X154784940Y-66225452D01*
X154729884Y-66333506D01*
X154681910Y-66384301D01*
X154614089Y-66401096D01*
X154547954Y-66378558D01*
X154508916Y-66333506D01*
X154453859Y-66225452D01*
X154435992Y-66200860D01*
X154334924Y-66061753D01*
X154191847Y-65918676D01*
X154028149Y-65799742D01*
X154028148Y-65799741D01*
X154028146Y-65799740D01*
X153960543Y-65765294D01*
X153909748Y-65717320D01*
X153892953Y-65649499D01*
X153915491Y-65583364D01*
X153929152Y-65567135D01*
X156635870Y-62860419D01*
X156697193Y-62826934D01*
X156723551Y-62824100D01*
X170482970Y-62824100D01*
X170550009Y-62843785D01*
X170595764Y-62896589D01*
X170605708Y-62965747D01*
X170576683Y-63029303D01*
X170526303Y-63064282D01*
X170510313Y-63070245D01*
X170510306Y-63070249D01*
X170395212Y-63156409D01*
X170395209Y-63156412D01*
X170309049Y-63271506D01*
X170309045Y-63271513D01*
X170258803Y-63406220D01*
X170258801Y-63406227D01*
X170252400Y-63465755D01*
X170252400Y-64113600D01*
X171169388Y-64113600D01*
X171136475Y-64170607D01*
X171102400Y-64297774D01*
X171102400Y-64429426D01*
X171136475Y-64556593D01*
X171169388Y-64613600D01*
X170252400Y-64613600D01*
X170252400Y-65261444D01*
X170258801Y-65320972D01*
X170258803Y-65320979D01*
X170309045Y-65455686D01*
X170309049Y-65455693D01*
X170395209Y-65570787D01*
X170395212Y-65570790D01*
X170510306Y-65656950D01*
X170510313Y-65656954D01*
X170645020Y-65707196D01*
X170645027Y-65707198D01*
X170704555Y-65713599D01*
X170704572Y-65713600D01*
X171352400Y-65713600D01*
X171352400Y-64796612D01*
X171409407Y-64829525D01*
X171536574Y-64863600D01*
X171668226Y-64863600D01*
X171795393Y-64829525D01*
X171852400Y-64796612D01*
X171852400Y-65713600D01*
X172500228Y-65713600D01*
X172500244Y-65713599D01*
X172559772Y-65707198D01*
X172559779Y-65707196D01*
X172694486Y-65656954D01*
X172694493Y-65656950D01*
X172809587Y-65570790D01*
X172809590Y-65570787D01*
X172895750Y-65455693D01*
X172895754Y-65455686D01*
X172945996Y-65320979D01*
X172945998Y-65320972D01*
X172952399Y-65261444D01*
X172952400Y-65261427D01*
X172952400Y-64613600D01*
X172035412Y-64613600D01*
X172068325Y-64556593D01*
X172102400Y-64429426D01*
X172102400Y-64297774D01*
X172068325Y-64170607D01*
X172035412Y-64113600D01*
X172952400Y-64113600D01*
X172952400Y-63465772D01*
X172952399Y-63465755D01*
X172945998Y-63406227D01*
X172945996Y-63406220D01*
X172895754Y-63271513D01*
X172895750Y-63271506D01*
X172809590Y-63156412D01*
X172809587Y-63156409D01*
X172694493Y-63070249D01*
X172694488Y-63070246D01*
X172562928Y-63021177D01*
X172506995Y-62979305D01*
X172482578Y-62913841D01*
X172497430Y-62845568D01*
X172518575Y-62817320D01*
X172632504Y-62703392D01*
X172650963Y-62677986D01*
X172757448Y-62531420D01*
X172757447Y-62531420D01*
X172757451Y-62531416D01*
X172853957Y-62342012D01*
X172919646Y-62139843D01*
X172952900Y-61929887D01*
X172952900Y-61717313D01*
X172919646Y-61507357D01*
X172853957Y-61305188D01*
X172757451Y-61115784D01*
X172757449Y-61115781D01*
X172757448Y-61115779D01*
X172632509Y-60943813D01*
X172482186Y-60793490D01*
X172310220Y-60668551D01*
X172309515Y-60668191D01*
X172301454Y-60664085D01*
X172250659Y-60616112D01*
X172233863Y-60548292D01*
X172256399Y-60482156D01*
X172301454Y-60443115D01*
X172310216Y-60438651D01*
X172345178Y-60413250D01*
X172482186Y-60313709D01*
X172482188Y-60313706D01*
X172482192Y-60313704D01*
X172632504Y-60163392D01*
X172632506Y-60163388D01*
X172632509Y-60163386D01*
X172757448Y-59991420D01*
X172757447Y-59991420D01*
X172757451Y-59991416D01*
X172853957Y-59802012D01*
X172919646Y-59599843D01*
X172952900Y-59389887D01*
X172952900Y-59177313D01*
X172919646Y-58967357D01*
X172853957Y-58765188D01*
X172757451Y-58575784D01*
X172757449Y-58575781D01*
X172757448Y-58575779D01*
X172632509Y-58403813D01*
X172482186Y-58253490D01*
X172310217Y-58128549D01*
X172300904Y-58123804D01*
X172250107Y-58075830D01*
X172233312Y-58008009D01*
X172255849Y-57941874D01*
X172300907Y-57902832D01*
X172309955Y-57898222D01*
X172364116Y-57858870D01*
X172364117Y-57858870D01*
X171731808Y-57226562D01*
X171795393Y-57209525D01*
X171909407Y-57143699D01*
X172002499Y-57050607D01*
X172068325Y-56936593D01*
X172085362Y-56873008D01*
X172717670Y-57505317D01*
X172717670Y-57505316D01*
X172757022Y-57451154D01*
X172853495Y-57261817D01*
X172919157Y-57059730D01*
X172919157Y-57059727D01*
X172952400Y-56849846D01*
X172952400Y-56637353D01*
X172919157Y-56427472D01*
X172919157Y-56427469D01*
X172853495Y-56225382D01*
X172757024Y-56036049D01*
X172717670Y-55981882D01*
X172717669Y-55981882D01*
X172085362Y-56614190D01*
X172068325Y-56550607D01*
X172002499Y-56436593D01*
X171909407Y-56343501D01*
X171795393Y-56277675D01*
X171731809Y-56260637D01*
X172364116Y-55628328D01*
X172309947Y-55588973D01*
X172309947Y-55588972D01*
X172300900Y-55584363D01*
X172250106Y-55536388D01*
X172233312Y-55468566D01*
X172255851Y-55402432D01*
X172300908Y-55363393D01*
X172310216Y-55358651D01*
X172389407Y-55301115D01*
X172482186Y-55233709D01*
X172482188Y-55233706D01*
X172482192Y-55233704D01*
X172632504Y-55083392D01*
X172632506Y-55083388D01*
X172632509Y-55083386D01*
X172757448Y-54911420D01*
X172757447Y-54911420D01*
X172757451Y-54911416D01*
X172853957Y-54722012D01*
X172919646Y-54519843D01*
X172952900Y-54309887D01*
X172952900Y-54097313D01*
X172919646Y-53887357D01*
X172853957Y-53685188D01*
X172757451Y-53495784D01*
X172757449Y-53495781D01*
X172757448Y-53495779D01*
X172632509Y-53323813D01*
X172482186Y-53173490D01*
X172310220Y-53048551D01*
X172120814Y-52952044D01*
X172120813Y-52952043D01*
X172120812Y-52952043D01*
X171918643Y-52886354D01*
X171918641Y-52886353D01*
X171918640Y-52886353D01*
X171757357Y-52860808D01*
X171708687Y-52853100D01*
X171496113Y-52853100D01*
X171447442Y-52860808D01*
X171286160Y-52886353D01*
X171083985Y-52952044D01*
X170894579Y-53048551D01*
X170722613Y-53173490D01*
X170572290Y-53323813D01*
X170447351Y-53495779D01*
X170350844Y-53685185D01*
X170350843Y-53685187D01*
X170350843Y-53685188D01*
X170317998Y-53786272D01*
X170285153Y-53887360D01*
X170251900Y-54097313D01*
X170251900Y-54309886D01*
X170285153Y-54519839D01*
X170350844Y-54722014D01*
X170447351Y-54911420D01*
X170572290Y-55083386D01*
X170722613Y-55233709D01*
X170894579Y-55358648D01*
X170894581Y-55358649D01*
X170894584Y-55358651D01*
X170903893Y-55363394D01*
X170954690Y-55411366D01*
X170971487Y-55479187D01*
X170948952Y-55545322D01*
X170903905Y-55584360D01*
X170894846Y-55588976D01*
X170894840Y-55588980D01*
X170840682Y-55628327D01*
X170840682Y-55628328D01*
X171472991Y-56260637D01*
X171409407Y-56277675D01*
X171295393Y-56343501D01*
X171202301Y-56436593D01*
X171136475Y-56550607D01*
X171119437Y-56614191D01*
X170487128Y-55981882D01*
X170487127Y-55981882D01*
X170447780Y-56036039D01*
X170351304Y-56225382D01*
X170285642Y-56427469D01*
X170285642Y-56427472D01*
X170252400Y-56637353D01*
X170252400Y-56849846D01*
X170285642Y-57059727D01*
X170285642Y-57059730D01*
X170351304Y-57261817D01*
X170447775Y-57451150D01*
X170487128Y-57505316D01*
X171119437Y-56873008D01*
X171136475Y-56936593D01*
X171202301Y-57050607D01*
X171295393Y-57143699D01*
X171409407Y-57209525D01*
X171472990Y-57226562D01*
X170840682Y-57858869D01*
X170840682Y-57858870D01*
X170894852Y-57898226D01*
X170894851Y-57898226D01*
X170903895Y-57902834D01*
X170954692Y-57950808D01*
X170971487Y-58018629D01*
X170948950Y-58084764D01*
X170903899Y-58123802D01*
X170894582Y-58128549D01*
X170722613Y-58253490D01*
X170572290Y-58403813D01*
X170447351Y-58575779D01*
X170350844Y-58765185D01*
X170285153Y-58967360D01*
X170251900Y-59177313D01*
X170251900Y-59389886D01*
X170285153Y-59599839D01*
X170350844Y-59802014D01*
X170447351Y-59991420D01*
X170572290Y-60163386D01*
X170722613Y-60313709D01*
X170894582Y-60438650D01*
X170903346Y-60443116D01*
X170954142Y-60491091D01*
X170970936Y-60558912D01*
X170948398Y-60625047D01*
X170903346Y-60664084D01*
X170894582Y-60668549D01*
X170718666Y-60796359D01*
X170718035Y-60795491D01*
X170658981Y-60821959D01*
X170642200Y-60823100D01*
X156159226Y-60823100D01*
X156151937Y-60824550D01*
X156093626Y-60836149D01*
X155965935Y-60861547D01*
X155965927Y-60861550D01*
X155912602Y-60883637D01*
X155912602Y-60883638D01*
X155867083Y-60902492D01*
X155783857Y-60936966D01*
X155783847Y-60936971D01*
X155658000Y-61021061D01*
X155657999Y-61021062D01*
X155619983Y-61046462D01*
X155619982Y-61046463D01*
X146522780Y-70143666D01*
X146461457Y-70177151D01*
X146391765Y-70172167D01*
X146335832Y-70130295D01*
X146311415Y-70064831D01*
X146311099Y-70055985D01*
X146311099Y-70030729D01*
X146311098Y-70030723D01*
X146311097Y-70030716D01*
X146304691Y-69971117D01*
X146263076Y-69859542D01*
X146254397Y-69836271D01*
X146254393Y-69836264D01*
X146168147Y-69721055D01*
X146168144Y-69721052D01*
X146052935Y-69634806D01*
X146052928Y-69634802D01*
X145918082Y-69584508D01*
X145918083Y-69584508D01*
X145858483Y-69578101D01*
X145858481Y-69578100D01*
X145858473Y-69578100D01*
X145858464Y-69578100D01*
X144391129Y-69578100D01*
X144391123Y-69578101D01*
X144331516Y-69584508D01*
X144196671Y-69634802D01*
X144196664Y-69634806D01*
X144081455Y-69721052D01*
X144081452Y-69721055D01*
X143995206Y-69836264D01*
X143995202Y-69836271D01*
X143944908Y-69971117D01*
X143941315Y-70004544D01*
X143938501Y-70030723D01*
X143938500Y-70030735D01*
X143938500Y-70308810D01*
X143918815Y-70375849D01*
X143866011Y-70421604D01*
X143796853Y-70431548D01*
X143733297Y-70402523D01*
X143696569Y-70347128D01*
X143694594Y-70341049D01*
X143684187Y-70309019D01*
X143599415Y-70142643D01*
X143489659Y-69991578D01*
X143357622Y-69859541D01*
X143206557Y-69749785D01*
X143040181Y-69665013D01*
X142862593Y-69607311D01*
X142862591Y-69607310D01*
X142862589Y-69607310D01*
X142718622Y-69584508D01*
X142678164Y-69578100D01*
X142491436Y-69578100D01*
X142450978Y-69584508D01*
X142307010Y-69607310D01*
X142129416Y-69665014D01*
X141963042Y-69749785D01*
X141811976Y-69859542D01*
X141679942Y-69991576D01*
X141570185Y-70142642D01*
X141485414Y-70309016D01*
X141485413Y-70309018D01*
X141485413Y-70309019D01*
X141449002Y-70421082D01*
X141432731Y-70471158D01*
X141393293Y-70528834D01*
X141328935Y-70556032D01*
X141260088Y-70544117D01*
X141208613Y-70496873D01*
X141196869Y-70471158D01*
X141180768Y-70421604D01*
X141144187Y-70309019D01*
X141059415Y-70142643D01*
X140949659Y-69991578D01*
X140817622Y-69859541D01*
X140666557Y-69749785D01*
X140500181Y-69665013D01*
X140322593Y-69607311D01*
X140322591Y-69607310D01*
X140322589Y-69607310D01*
X140178622Y-69584508D01*
X140138164Y-69578100D01*
X139951436Y-69578100D01*
X139910978Y-69584508D01*
X139767010Y-69607310D01*
X139589416Y-69665014D01*
X139423042Y-69749785D01*
X139271976Y-69859542D01*
X139139942Y-69991576D01*
X139030185Y-70142642D01*
X138945415Y-70309014D01*
X138945414Y-70309016D01*
X138945413Y-70309019D01*
X138909001Y-70421083D01*
X138892468Y-70471967D01*
X138853030Y-70529642D01*
X138788672Y-70556840D01*
X138719825Y-70544925D01*
X138668350Y-70497681D01*
X138656606Y-70471966D01*
X138603722Y-70309208D01*
X138518986Y-70142904D01*
X138502516Y-70120236D01*
X138502516Y-70120235D01*
X137932077Y-70690674D01*
X137907174Y-70597731D01*
X137850326Y-70499269D01*
X137769931Y-70418874D01*
X137671469Y-70362026D01*
X137578524Y-70337122D01*
X138148962Y-69766682D01*
X138126291Y-69750211D01*
X137959991Y-69665477D01*
X137782472Y-69607797D01*
X137598130Y-69578600D01*
X137411470Y-69578600D01*
X137227127Y-69607797D01*
X137049608Y-69665477D01*
X136883302Y-69750214D01*
X136860636Y-69766682D01*
X136860635Y-69766682D01*
X137431075Y-70337121D01*
X137338131Y-70362026D01*
X137239669Y-70418874D01*
X137159274Y-70499269D01*
X137102426Y-70597731D01*
X137077522Y-70690675D01*
X136507082Y-70120235D01*
X136507082Y-70120236D01*
X136490614Y-70142902D01*
X136405877Y-70309208D01*
X136348197Y-70486727D01*
X136319000Y-70671069D01*
X136319000Y-70857730D01*
X136348197Y-71042072D01*
X136349335Y-71046811D01*
X136347255Y-71047310D01*
X136348990Y-71108235D01*
X136312904Y-71168064D01*
X136250200Y-71198886D01*
X136229067Y-71200700D01*
X133283471Y-71200700D01*
X133216432Y-71181015D01*
X133195790Y-71164381D01*
X132575526Y-70544117D01*
X131702713Y-69671305D01*
X131669229Y-69609983D01*
X131674213Y-69540291D01*
X131716085Y-69484358D01*
X131770997Y-69461152D01*
X131894505Y-69441590D01*
X132089119Y-69378355D01*
X132271437Y-69285459D01*
X132316009Y-69253074D01*
X131636535Y-68573600D01*
X131642749Y-68573600D01*
X131744482Y-68546341D01*
X131835694Y-68493680D01*
X131910168Y-68419206D01*
X131962829Y-68327994D01*
X131990088Y-68226261D01*
X131990088Y-68220047D01*
X132669562Y-68899521D01*
X132701949Y-68854947D01*
X132701949Y-68854946D01*
X132758927Y-68743121D01*
X132758927Y-68743120D01*
X132794843Y-68672631D01*
X132858078Y-68478017D01*
X132890088Y-68275917D01*
X132890088Y-68071282D01*
X132858078Y-67869182D01*
X132802565Y-67698335D01*
X132802564Y-67698333D01*
X132794843Y-67674570D01*
X132789907Y-67664882D01*
X134132800Y-67664882D01*
X134132800Y-67869517D01*
X134164809Y-68071617D01*
X134228044Y-68266231D01*
X134320941Y-68448550D01*
X134320947Y-68448559D01*
X134353323Y-68493121D01*
X134353324Y-68493122D01*
X135032800Y-67813646D01*
X135032800Y-67819861D01*
X135060059Y-67921594D01*
X135112720Y-68012806D01*
X135187194Y-68087280D01*
X135278406Y-68139941D01*
X135380139Y-68167200D01*
X135386353Y-68167200D01*
X134706876Y-68846674D01*
X134751450Y-68879059D01*
X134933768Y-68971955D01*
X135128382Y-69035190D01*
X135330483Y-69067200D01*
X135535117Y-69067200D01*
X135737217Y-69035190D01*
X135931831Y-68971955D01*
X136114149Y-68879059D01*
X136158721Y-68846674D01*
X135479247Y-68167200D01*
X135485461Y-68167200D01*
X135587194Y-68139941D01*
X135678406Y-68087280D01*
X135752880Y-68012806D01*
X135805541Y-67921594D01*
X135832800Y-67819861D01*
X135832800Y-67813648D01*
X136512274Y-68493122D01*
X136512274Y-68493121D01*
X136544659Y-68448549D01*
X136637555Y-68266231D01*
X136700790Y-68071617D01*
X136732800Y-67869517D01*
X136732800Y-67664882D01*
X136732795Y-67664848D01*
X144292300Y-67664848D01*
X144292300Y-67869551D01*
X144324322Y-68071734D01*
X144387581Y-68266423D01*
X144418954Y-68327994D01*
X144480385Y-68448559D01*
X144480515Y-68448813D01*
X144600828Y-68614413D01*
X144745586Y-68759171D01*
X144866026Y-68846674D01*
X144911190Y-68879487D01*
X145027407Y-68938703D01*
X145093576Y-68972418D01*
X145093578Y-68972418D01*
X145093581Y-68972420D01*
X145197937Y-69006327D01*
X145288265Y-69035677D01*
X145389357Y-69051688D01*
X145490448Y-69067700D01*
X145490449Y-69067700D01*
X145695151Y-69067700D01*
X145695152Y-69067700D01*
X145897334Y-69035677D01*
X146092019Y-68972420D01*
X146274410Y-68879487D01*
X146369338Y-68810518D01*
X146440013Y-68759171D01*
X146440015Y-68759168D01*
X146440019Y-68759166D01*
X146584766Y-68614419D01*
X146584768Y-68614415D01*
X146584771Y-68614413D01*
X146672487Y-68493680D01*
X146705087Y-68448810D01*
X146798020Y-68266419D01*
X146861277Y-68071734D01*
X146893300Y-67869552D01*
X146893300Y-67664848D01*
X146878845Y-67573583D01*
X146861277Y-67462665D01*
X146809810Y-67304268D01*
X146798020Y-67267981D01*
X146798018Y-67267978D01*
X146798018Y-67267976D01*
X146764303Y-67201807D01*
X146705087Y-67085590D01*
X146672892Y-67041277D01*
X146584771Y-66919986D01*
X146440013Y-66775228D01*
X146274413Y-66654915D01*
X146274412Y-66654914D01*
X146274410Y-66654913D01*
X146217453Y-66625891D01*
X146092023Y-66561981D01*
X145897334Y-66498722D01*
X145722795Y-66471078D01*
X145695152Y-66466700D01*
X145490448Y-66466700D01*
X145466129Y-66470551D01*
X145288265Y-66498722D01*
X145093576Y-66561981D01*
X144911186Y-66654915D01*
X144745586Y-66775228D01*
X144600828Y-66919986D01*
X144480515Y-67085586D01*
X144387581Y-67267976D01*
X144324322Y-67462665D01*
X144292300Y-67664848D01*
X136732795Y-67664848D01*
X136700790Y-67462782D01*
X136637555Y-67268168D01*
X136544659Y-67085850D01*
X136512274Y-67041277D01*
X136512274Y-67041276D01*
X135832800Y-67720751D01*
X135832800Y-67714539D01*
X135805541Y-67612806D01*
X135752880Y-67521594D01*
X135678406Y-67447120D01*
X135587194Y-67394459D01*
X135485461Y-67367200D01*
X135479246Y-67367200D01*
X136158722Y-66687724D01*
X136158721Y-66687723D01*
X136114159Y-66655347D01*
X136114150Y-66655341D01*
X135931831Y-66562444D01*
X135737217Y-66499209D01*
X135535117Y-66467200D01*
X135330483Y-66467200D01*
X135128382Y-66499209D01*
X134933768Y-66562444D01*
X134751444Y-66655343D01*
X134706877Y-66687723D01*
X134706877Y-66687724D01*
X135386354Y-67367200D01*
X135380139Y-67367200D01*
X135278406Y-67394459D01*
X135187194Y-67447120D01*
X135112720Y-67521594D01*
X135060059Y-67612806D01*
X135032800Y-67714539D01*
X135032800Y-67720753D01*
X134353324Y-67041277D01*
X134353323Y-67041277D01*
X134320943Y-67085844D01*
X134228044Y-67268168D01*
X134164809Y-67462782D01*
X134132800Y-67664882D01*
X132789907Y-67664882D01*
X132701947Y-67492250D01*
X132669562Y-67447677D01*
X132669562Y-67447676D01*
X131990088Y-68127151D01*
X131990088Y-68120939D01*
X131962829Y-68019206D01*
X131910168Y-67927994D01*
X131835694Y-67853520D01*
X131744482Y-67800859D01*
X131642749Y-67773600D01*
X131636534Y-67773600D01*
X132316010Y-67094124D01*
X132316009Y-67094123D01*
X132271447Y-67061747D01*
X132271438Y-67061741D01*
X132089119Y-66968844D01*
X131894505Y-66905609D01*
X131692405Y-66873600D01*
X131487771Y-66873600D01*
X131285670Y-66905609D01*
X131091056Y-66968844D01*
X130908739Y-67061739D01*
X130838532Y-67112748D01*
X130772725Y-67136227D01*
X130704671Y-67120401D01*
X130677966Y-67100110D01*
X130608745Y-67030889D01*
X130608744Y-67030888D01*
X130459422Y-66938786D01*
X130292885Y-66883601D01*
X130292883Y-66883600D01*
X130190098Y-66873100D01*
X128990086Y-66873100D01*
X128990069Y-66873101D01*
X128887291Y-66883600D01*
X128887288Y-66883601D01*
X128720756Y-66938785D01*
X128720751Y-66938787D01*
X128571430Y-67030889D01*
X128447377Y-67154942D01*
X128355275Y-67304263D01*
X128355274Y-67304266D01*
X128300089Y-67470803D01*
X128300089Y-67470804D01*
X128300088Y-67470804D01*
X128289588Y-67573583D01*
X128289588Y-68773601D01*
X128289589Y-68773618D01*
X128300088Y-68876396D01*
X128300089Y-68876399D01*
X128331754Y-68971955D01*
X128355274Y-69042934D01*
X128447376Y-69192256D01*
X128571432Y-69316312D01*
X128641645Y-69359619D01*
X128688368Y-69411564D01*
X128691108Y-69417704D01*
X128703452Y-69447507D01*
X128703459Y-69447520D01*
X128812947Y-69611380D01*
X128812948Y-69611381D01*
X128812949Y-69611382D01*
X128952306Y-69750739D01*
X128952307Y-69750739D01*
X128959374Y-69757806D01*
X128959373Y-69757806D01*
X128959377Y-69757809D01*
X132179903Y-72978337D01*
X132179907Y-72978340D01*
X132343767Y-73087828D01*
X132343776Y-73087833D01*
X132418706Y-73118870D01*
X132525853Y-73163252D01*
X132687077Y-73195321D01*
X132719145Y-73201699D01*
X132719146Y-73201700D01*
X132719147Y-73201700D01*
X132719148Y-73201700D01*
X132916228Y-73201700D01*
X138475818Y-73201700D01*
X138542857Y-73221385D01*
X138563499Y-73238019D01*
X139924899Y-74599419D01*
X139958384Y-74660742D01*
X139953400Y-74730434D01*
X139911528Y-74786367D01*
X139846064Y-74810784D01*
X139837218Y-74811100D01*
X120919128Y-74811100D01*
X120890294Y-74816834D01*
X120890295Y-74816835D01*
X120774144Y-74839939D01*
X120774138Y-74839941D01*
X120707735Y-74867447D01*
X120637561Y-74896514D01*
X120637553Y-74896518D01*
X120555424Y-74951395D01*
X120514637Y-74978647D01*
X120514633Y-74978650D01*
X119530252Y-75963030D01*
X119530246Y-75963037D01*
X119484924Y-76030867D01*
X119484925Y-76030868D01*
X119448114Y-76085960D01*
X119391543Y-76222534D01*
X119391540Y-76222544D01*
X119362700Y-76367531D01*
X119362700Y-94466231D01*
X119360165Y-94474862D01*
X119361454Y-94483766D01*
X119350474Y-94507865D01*
X119343015Y-94533270D01*
X119336217Y-94539160D01*
X119332487Y-94547348D01*
X119310220Y-94561686D01*
X119290211Y-94579025D01*
X119279756Y-94581304D01*
X119273744Y-94585176D01*
X119238813Y-94590231D01*
X119191813Y-94590274D01*
X119124756Y-94570651D01*
X119078953Y-94517889D01*
X119067700Y-94466274D01*
X119067700Y-53280335D01*
X119477300Y-53280335D01*
X119477300Y-55076070D01*
X119477301Y-55076076D01*
X119483708Y-55135683D01*
X119534002Y-55270528D01*
X119534006Y-55270535D01*
X119620252Y-55385744D01*
X119620255Y-55385747D01*
X119735464Y-55471993D01*
X119735471Y-55471997D01*
X119866882Y-55521010D01*
X119922816Y-55562881D01*
X119947233Y-55628345D01*
X119932382Y-55696618D01*
X119911231Y-55724873D01*
X119797689Y-55838415D01*
X119672751Y-56010379D01*
X119576244Y-56199785D01*
X119510553Y-56401960D01*
X119487010Y-56550607D01*
X119477300Y-56611913D01*
X119477300Y-56824487D01*
X119481424Y-56850524D01*
X119510553Y-57034439D01*
X119510553Y-57034441D01*
X119510554Y-57034443D01*
X119564851Y-57201552D01*
X119576244Y-57236614D01*
X119672751Y-57426020D01*
X119797690Y-57597986D01*
X119948013Y-57748309D01*
X120119982Y-57873250D01*
X120128746Y-57877716D01*
X120179542Y-57925691D01*
X120196336Y-57993512D01*
X120173798Y-58059647D01*
X120128746Y-58098684D01*
X120119982Y-58103149D01*
X119948013Y-58228090D01*
X119797690Y-58378413D01*
X119672751Y-58550379D01*
X119576244Y-58739785D01*
X119510553Y-58941960D01*
X119477300Y-59151913D01*
X119477300Y-59364486D01*
X119510553Y-59574439D01*
X119576244Y-59776614D01*
X119672751Y-59966020D01*
X119797690Y-60137986D01*
X119948013Y-60288309D01*
X120119982Y-60413250D01*
X120128746Y-60417716D01*
X120179542Y-60465691D01*
X120196336Y-60533512D01*
X120173798Y-60599647D01*
X120128746Y-60638684D01*
X120119982Y-60643149D01*
X119948013Y-60768090D01*
X119797690Y-60918413D01*
X119672751Y-61090379D01*
X119576244Y-61279785D01*
X119510553Y-61481960D01*
X119493624Y-61588848D01*
X119477300Y-61691913D01*
X119477300Y-61904487D01*
X119510554Y-62114443D01*
X119535240Y-62190419D01*
X119576244Y-62316614D01*
X119672751Y-62506020D01*
X119797690Y-62677986D01*
X119948013Y-62828309D01*
X120119979Y-62953248D01*
X120119981Y-62953249D01*
X120119984Y-62953251D01*
X120129293Y-62957994D01*
X120180090Y-63005966D01*
X120196887Y-63073787D01*
X120174352Y-63139922D01*
X120129305Y-63178960D01*
X120120246Y-63183576D01*
X120120240Y-63183580D01*
X120066082Y-63222927D01*
X120066082Y-63222928D01*
X120698391Y-63855237D01*
X120634807Y-63872275D01*
X120520793Y-63938101D01*
X120427701Y-64031193D01*
X120361875Y-64145207D01*
X120344837Y-64208791D01*
X119712528Y-63576482D01*
X119712527Y-63576482D01*
X119673180Y-63630639D01*
X119576704Y-63819982D01*
X119511042Y-64022069D01*
X119511042Y-64022072D01*
X119477800Y-64231953D01*
X119477800Y-64444446D01*
X119511042Y-64654327D01*
X119511042Y-64654330D01*
X119576704Y-64856417D01*
X119673175Y-65045750D01*
X119712528Y-65099916D01*
X120344837Y-64467608D01*
X120361875Y-64531193D01*
X120427701Y-64645207D01*
X120520793Y-64738299D01*
X120634807Y-64804125D01*
X120698390Y-64821162D01*
X120066082Y-65453469D01*
X120066082Y-65453470D01*
X120120249Y-65492824D01*
X120309582Y-65589295D01*
X120511670Y-65654957D01*
X120721554Y-65688200D01*
X120934046Y-65688200D01*
X121143927Y-65654957D01*
X121143930Y-65654957D01*
X121346017Y-65589295D01*
X121535354Y-65492822D01*
X121589516Y-65453470D01*
X121589517Y-65453470D01*
X120957208Y-64821162D01*
X121020793Y-64804125D01*
X121134807Y-64738299D01*
X121227899Y-64645207D01*
X121293725Y-64531193D01*
X121310762Y-64467608D01*
X121943070Y-65099917D01*
X121943070Y-65099916D01*
X121982422Y-65045754D01*
X122078895Y-64856417D01*
X122144557Y-64654330D01*
X122144557Y-64654327D01*
X122177800Y-64444446D01*
X122177800Y-64231953D01*
X122157441Y-64103414D01*
X122144557Y-64022072D01*
X122144557Y-64022069D01*
X122078895Y-63819982D01*
X121982424Y-63630649D01*
X121943070Y-63576482D01*
X121943069Y-63576482D01*
X121310762Y-64208790D01*
X121293725Y-64145207D01*
X121227899Y-64031193D01*
X121134807Y-63938101D01*
X121020793Y-63872275D01*
X120957209Y-63855237D01*
X121589516Y-63222928D01*
X121535347Y-63183573D01*
X121535347Y-63183572D01*
X121526300Y-63178963D01*
X121475506Y-63130988D01*
X121458712Y-63063166D01*
X121481251Y-62997032D01*
X121526308Y-62957993D01*
X121535616Y-62953251D01*
X121650154Y-62870035D01*
X121707586Y-62828309D01*
X121707588Y-62828306D01*
X121707592Y-62828304D01*
X121857904Y-62677992D01*
X121857906Y-62677988D01*
X121857909Y-62677986D01*
X121982848Y-62506020D01*
X121982847Y-62506020D01*
X121982851Y-62506016D01*
X122079357Y-62316612D01*
X122145046Y-62114443D01*
X122178300Y-61904487D01*
X122178300Y-61691913D01*
X122161976Y-61588848D01*
X131276700Y-61588848D01*
X131276700Y-61793551D01*
X131308722Y-61995734D01*
X131371981Y-62190423D01*
X131464915Y-62372813D01*
X131585228Y-62538413D01*
X131729986Y-62683171D01*
X131895585Y-62803484D01*
X131895587Y-62803485D01*
X131895590Y-62803487D01*
X131949578Y-62830995D01*
X132000374Y-62878969D01*
X132017169Y-62946790D01*
X131994632Y-63012925D01*
X131949578Y-63051965D01*
X131895844Y-63079343D01*
X131851277Y-63111723D01*
X131851277Y-63111724D01*
X132530754Y-63791200D01*
X132524539Y-63791200D01*
X132422806Y-63818459D01*
X132331594Y-63871120D01*
X132257120Y-63945594D01*
X132204459Y-64036806D01*
X132177200Y-64138539D01*
X132177200Y-64144753D01*
X131497724Y-63465277D01*
X131497723Y-63465277D01*
X131465343Y-63509844D01*
X131372444Y-63692168D01*
X131309209Y-63886782D01*
X131277200Y-64088882D01*
X131277200Y-64293517D01*
X131309209Y-64495617D01*
X131372444Y-64690231D01*
X131465341Y-64872550D01*
X131465347Y-64872559D01*
X131497723Y-64917121D01*
X131497724Y-64917122D01*
X132177200Y-64237646D01*
X132177200Y-64243861D01*
X132204459Y-64345594D01*
X132257120Y-64436806D01*
X132331594Y-64511280D01*
X132422806Y-64563941D01*
X132524539Y-64591200D01*
X132530753Y-64591200D01*
X131851276Y-65270674D01*
X131895850Y-65303059D01*
X132078168Y-65395955D01*
X132272782Y-65459190D01*
X132474883Y-65491200D01*
X132679517Y-65491200D01*
X132881617Y-65459190D01*
X133076231Y-65395955D01*
X133258549Y-65303059D01*
X133303121Y-65270674D01*
X132623647Y-64591200D01*
X132629861Y-64591200D01*
X132731594Y-64563941D01*
X132822806Y-64511280D01*
X132897280Y-64436806D01*
X132949941Y-64345594D01*
X132977200Y-64243861D01*
X132977200Y-64237648D01*
X133656674Y-64917122D01*
X133656674Y-64917121D01*
X133689059Y-64872549D01*
X133781955Y-64690231D01*
X133805799Y-64616848D01*
X134132300Y-64616848D01*
X134132300Y-64821551D01*
X134164322Y-65023734D01*
X134227581Y-65218423D01*
X134249502Y-65261444D01*
X134318039Y-65395955D01*
X134320515Y-65400813D01*
X134440828Y-65566413D01*
X134585586Y-65711171D01*
X134707496Y-65799742D01*
X134751190Y-65831487D01*
X134867407Y-65890703D01*
X134933576Y-65924418D01*
X134933578Y-65924418D01*
X134933581Y-65924420D01*
X135037937Y-65958327D01*
X135128265Y-65987677D01*
X135229357Y-66003688D01*
X135330448Y-66019700D01*
X135330449Y-66019700D01*
X135535151Y-66019700D01*
X135535152Y-66019700D01*
X135737334Y-65987677D01*
X135932019Y-65924420D01*
X136114410Y-65831487D01*
X136271549Y-65717320D01*
X136280013Y-65711171D01*
X136280015Y-65711168D01*
X136280019Y-65711166D01*
X136424766Y-65566419D01*
X136424768Y-65566415D01*
X136424771Y-65566413D01*
X136479415Y-65491200D01*
X136545087Y-65400810D01*
X136638020Y-65218419D01*
X136701277Y-65023734D01*
X136733300Y-64821552D01*
X136733300Y-64616848D01*
X144292300Y-64616848D01*
X144292300Y-64821551D01*
X144324322Y-65023734D01*
X144387581Y-65218423D01*
X144409502Y-65261444D01*
X144478039Y-65395955D01*
X144480515Y-65400813D01*
X144600828Y-65566413D01*
X144745586Y-65711171D01*
X144867496Y-65799742D01*
X144911190Y-65831487D01*
X145027407Y-65890703D01*
X145093576Y-65924418D01*
X145093578Y-65924418D01*
X145093581Y-65924420D01*
X145197937Y-65958327D01*
X145288265Y-65987677D01*
X145389357Y-66003688D01*
X145490448Y-66019700D01*
X145490449Y-66019700D01*
X145695151Y-66019700D01*
X145695152Y-66019700D01*
X145897334Y-65987677D01*
X146092019Y-65924420D01*
X146274410Y-65831487D01*
X146431549Y-65717320D01*
X146440013Y-65711171D01*
X146440015Y-65711168D01*
X146440019Y-65711166D01*
X146584766Y-65566419D01*
X146584768Y-65566415D01*
X146584771Y-65566413D01*
X146639415Y-65491200D01*
X146705087Y-65400810D01*
X146798020Y-65218419D01*
X146861277Y-65023734D01*
X146893300Y-64821552D01*
X146893300Y-64616848D01*
X146861277Y-64414666D01*
X146798020Y-64219981D01*
X146798018Y-64219978D01*
X146798018Y-64219976D01*
X146738626Y-64103414D01*
X146705087Y-64037590D01*
X146693810Y-64022069D01*
X146584771Y-63871986D01*
X146440013Y-63727228D01*
X146274413Y-63606915D01*
X146274412Y-63606914D01*
X146274410Y-63606913D01*
X146214686Y-63576482D01*
X146092023Y-63513981D01*
X145897334Y-63450722D01*
X145722795Y-63423078D01*
X145695152Y-63418700D01*
X145490448Y-63418700D01*
X145466129Y-63422551D01*
X145288265Y-63450722D01*
X145093576Y-63513981D01*
X144911186Y-63606915D01*
X144745586Y-63727228D01*
X144600828Y-63871986D01*
X144480515Y-64037586D01*
X144387581Y-64219976D01*
X144324322Y-64414665D01*
X144292300Y-64616848D01*
X136733300Y-64616848D01*
X136701277Y-64414666D01*
X136638020Y-64219981D01*
X136638018Y-64219978D01*
X136638018Y-64219976D01*
X136578626Y-64103414D01*
X136545087Y-64037590D01*
X136533810Y-64022069D01*
X136424771Y-63871986D01*
X136280013Y-63727228D01*
X136114413Y-63606915D01*
X136114412Y-63606914D01*
X136114410Y-63606913D01*
X136054686Y-63576482D01*
X135932023Y-63513981D01*
X135737334Y-63450722D01*
X135562795Y-63423078D01*
X135535152Y-63418700D01*
X135330448Y-63418700D01*
X135306129Y-63422551D01*
X135128265Y-63450722D01*
X134933576Y-63513981D01*
X134751186Y-63606915D01*
X134585586Y-63727228D01*
X134440828Y-63871986D01*
X134320515Y-64037586D01*
X134227581Y-64219976D01*
X134164322Y-64414665D01*
X134132300Y-64616848D01*
X133805799Y-64616848D01*
X133819833Y-64573657D01*
X133845190Y-64495617D01*
X133877200Y-64293517D01*
X133877200Y-64088882D01*
X133845190Y-63886782D01*
X133781955Y-63692168D01*
X133689059Y-63509850D01*
X133656674Y-63465277D01*
X133656674Y-63465276D01*
X132977200Y-64144751D01*
X132977200Y-64138539D01*
X132949941Y-64036806D01*
X132897280Y-63945594D01*
X132822806Y-63871120D01*
X132731594Y-63818459D01*
X132629861Y-63791200D01*
X132623646Y-63791200D01*
X133303122Y-63111724D01*
X133303121Y-63111723D01*
X133258559Y-63079347D01*
X133258550Y-63079341D01*
X133204821Y-63051965D01*
X133154025Y-63003991D01*
X133137230Y-62936170D01*
X133159767Y-62870035D01*
X133204821Y-62830995D01*
X133258810Y-62803487D01*
X133308344Y-62767498D01*
X133424413Y-62683171D01*
X133424415Y-62683168D01*
X133424419Y-62683166D01*
X133569166Y-62538419D01*
X133569168Y-62538415D01*
X133569171Y-62538413D01*
X133621932Y-62465790D01*
X133689487Y-62372810D01*
X133782420Y-62190419D01*
X133845677Y-61995734D01*
X133877700Y-61793552D01*
X133877700Y-61588848D01*
X133860770Y-61481957D01*
X133845677Y-61386665D01*
X133782418Y-61191976D01*
X133689487Y-61009590D01*
X133604467Y-60892569D01*
X133604466Y-60892566D01*
X133569171Y-60843987D01*
X133569167Y-60843982D01*
X133549735Y-60824550D01*
X139771300Y-60824550D01*
X139771300Y-60993849D01*
X139797781Y-61161047D01*
X139850096Y-61322053D01*
X139926952Y-61472888D01*
X140026448Y-61609834D01*
X140026452Y-61609839D01*
X140146160Y-61729547D01*
X140146165Y-61729551D01*
X140234256Y-61793552D01*
X140283115Y-61829050D01*
X140379225Y-61878020D01*
X140433946Y-61905903D01*
X140433948Y-61905903D01*
X140433951Y-61905905D01*
X140507757Y-61929886D01*
X140594952Y-61958218D01*
X140762151Y-61984700D01*
X140762156Y-61984700D01*
X140931449Y-61984700D01*
X141098647Y-61958218D01*
X141259649Y-61905905D01*
X141410485Y-61829050D01*
X141547441Y-61729546D01*
X141667146Y-61609841D01*
X141766650Y-61472885D01*
X141843505Y-61322049D01*
X141895818Y-61161047D01*
X141907011Y-61090379D01*
X141922300Y-60993849D01*
X141922300Y-60824550D01*
X144771300Y-60824550D01*
X144771300Y-60993849D01*
X144797781Y-61161047D01*
X144850096Y-61322053D01*
X144926952Y-61472888D01*
X145026448Y-61609834D01*
X145026452Y-61609839D01*
X145146160Y-61729547D01*
X145146165Y-61729551D01*
X145234256Y-61793552D01*
X145283115Y-61829050D01*
X145379225Y-61878020D01*
X145433946Y-61905903D01*
X145433948Y-61905903D01*
X145433951Y-61905905D01*
X145507757Y-61929886D01*
X145594952Y-61958218D01*
X145762151Y-61984700D01*
X145762156Y-61984700D01*
X145931449Y-61984700D01*
X146098647Y-61958218D01*
X146259649Y-61905905D01*
X146410485Y-61829050D01*
X146547441Y-61729546D01*
X146667146Y-61609841D01*
X146766650Y-61472885D01*
X146843505Y-61322049D01*
X146895818Y-61161047D01*
X146907011Y-61090379D01*
X146922300Y-60993849D01*
X146922300Y-60824550D01*
X146895818Y-60657352D01*
X146853853Y-60528200D01*
X146843505Y-60496351D01*
X146843503Y-60496348D01*
X146843503Y-60496346D01*
X146814104Y-60438648D01*
X146766650Y-60345515D01*
X146725084Y-60288304D01*
X146667151Y-60208565D01*
X146667147Y-60208560D01*
X146547439Y-60088852D01*
X146547434Y-60088848D01*
X146410488Y-59989352D01*
X146410487Y-59989351D01*
X146410485Y-59989350D01*
X146363382Y-59965350D01*
X146259653Y-59912496D01*
X146098647Y-59860181D01*
X145931449Y-59833700D01*
X145931444Y-59833700D01*
X145762156Y-59833700D01*
X145762151Y-59833700D01*
X145594952Y-59860181D01*
X145433946Y-59912496D01*
X145283111Y-59989352D01*
X145146165Y-60088848D01*
X145146160Y-60088852D01*
X145026452Y-60208560D01*
X145026448Y-60208565D01*
X144926952Y-60345511D01*
X144850096Y-60496346D01*
X144797781Y-60657352D01*
X144771300Y-60824550D01*
X141922300Y-60824550D01*
X141895818Y-60657352D01*
X141853853Y-60528200D01*
X141843505Y-60496351D01*
X141843503Y-60496348D01*
X141843503Y-60496346D01*
X141814104Y-60438648D01*
X141766650Y-60345515D01*
X141725084Y-60288304D01*
X141667151Y-60208565D01*
X141667147Y-60208560D01*
X141547439Y-60088852D01*
X141547434Y-60088848D01*
X141410488Y-59989352D01*
X141410487Y-59989351D01*
X141410485Y-59989350D01*
X141363382Y-59965350D01*
X141259653Y-59912496D01*
X141098647Y-59860181D01*
X140931449Y-59833700D01*
X140931444Y-59833700D01*
X140762156Y-59833700D01*
X140762151Y-59833700D01*
X140594952Y-59860181D01*
X140433946Y-59912496D01*
X140283111Y-59989352D01*
X140146165Y-60088848D01*
X140146160Y-60088852D01*
X140026452Y-60208560D01*
X140026448Y-60208565D01*
X139926952Y-60345511D01*
X139850096Y-60496346D01*
X139797781Y-60657352D01*
X139771300Y-60824550D01*
X133549735Y-60824550D01*
X133424413Y-60699228D01*
X133258813Y-60578915D01*
X133258812Y-60578914D01*
X133258810Y-60578913D01*
X133195477Y-60546643D01*
X133076423Y-60485981D01*
X132881734Y-60422722D01*
X132707195Y-60395078D01*
X132679552Y-60390700D01*
X132474848Y-60390700D01*
X132450529Y-60394551D01*
X132272665Y-60422722D01*
X132077976Y-60485981D01*
X131895586Y-60578915D01*
X131729986Y-60699228D01*
X131585228Y-60843986D01*
X131464915Y-61009586D01*
X131371981Y-61191976D01*
X131308722Y-61386665D01*
X131276700Y-61588848D01*
X122161976Y-61588848D01*
X122145046Y-61481957D01*
X122079357Y-61279788D01*
X121982851Y-61090384D01*
X121982849Y-61090381D01*
X121982848Y-61090379D01*
X121857909Y-60918413D01*
X121707586Y-60768090D01*
X121535620Y-60643151D01*
X121534915Y-60642791D01*
X121526854Y-60638685D01*
X121476059Y-60590712D01*
X121459263Y-60522892D01*
X121481799Y-60456756D01*
X121526854Y-60417715D01*
X121535616Y-60413251D01*
X121566655Y-60390700D01*
X121707586Y-60288309D01*
X121707588Y-60288306D01*
X121707592Y-60288304D01*
X121857904Y-60137992D01*
X121857906Y-60137988D01*
X121857909Y-60137986D01*
X121982848Y-59966020D01*
X121982847Y-59966020D01*
X121982851Y-59966016D01*
X122079357Y-59776612D01*
X122145046Y-59574443D01*
X122178300Y-59364487D01*
X122178300Y-59151913D01*
X122145046Y-58941957D01*
X122079357Y-58739788D01*
X121982851Y-58550384D01*
X121982849Y-58550381D01*
X121982848Y-58550379D01*
X121857909Y-58378413D01*
X121707586Y-58228090D01*
X121535620Y-58103151D01*
X121534915Y-58102791D01*
X121526854Y-58098685D01*
X121476059Y-58050712D01*
X121459263Y-57982892D01*
X121481799Y-57916756D01*
X121526854Y-57877715D01*
X121535616Y-57873251D01*
X121557589Y-57857286D01*
X121707586Y-57748309D01*
X121707588Y-57748306D01*
X121707592Y-57748304D01*
X121857904Y-57597992D01*
X121857906Y-57597988D01*
X121857909Y-57597986D01*
X121982848Y-57426020D01*
X121982847Y-57426020D01*
X121982851Y-57426016D01*
X122079357Y-57236612D01*
X122145046Y-57034443D01*
X122151001Y-56996848D01*
X134132300Y-56996848D01*
X134132300Y-57201551D01*
X134164322Y-57403734D01*
X134227581Y-57598423D01*
X134291491Y-57723853D01*
X134309963Y-57760105D01*
X134320515Y-57780813D01*
X134440828Y-57946413D01*
X134585586Y-58091171D01*
X134740549Y-58203756D01*
X134751190Y-58211487D01*
X134867407Y-58270703D01*
X134933576Y-58304418D01*
X134933578Y-58304418D01*
X134933581Y-58304420D01*
X135037937Y-58338327D01*
X135128265Y-58367677D01*
X135196049Y-58378413D01*
X135330448Y-58399700D01*
X135330449Y-58399700D01*
X135535151Y-58399700D01*
X135535152Y-58399700D01*
X135737334Y-58367677D01*
X135932019Y-58304420D01*
X136114410Y-58211487D01*
X136222870Y-58132687D01*
X136280013Y-58091171D01*
X136280015Y-58091168D01*
X136280019Y-58091166D01*
X136424766Y-57946419D01*
X136424768Y-57946415D01*
X136424771Y-57946413D01*
X136477927Y-57873248D01*
X136545087Y-57780810D01*
X136638020Y-57598419D01*
X136701277Y-57403734D01*
X136733300Y-57201552D01*
X136733300Y-56996848D01*
X144292300Y-56996848D01*
X144292300Y-57201551D01*
X144324322Y-57403734D01*
X144387581Y-57598423D01*
X144451491Y-57723853D01*
X144469963Y-57760105D01*
X144480515Y-57780813D01*
X144600828Y-57946413D01*
X144745586Y-58091171D01*
X144900549Y-58203756D01*
X144911190Y-58211487D01*
X145027407Y-58270703D01*
X145093576Y-58304418D01*
X145093578Y-58304418D01*
X145093581Y-58304420D01*
X145197937Y-58338327D01*
X145288265Y-58367677D01*
X145356049Y-58378413D01*
X145490448Y-58399700D01*
X145490449Y-58399700D01*
X145695151Y-58399700D01*
X145695152Y-58399700D01*
X145897334Y-58367677D01*
X146092019Y-58304420D01*
X146274410Y-58211487D01*
X146382870Y-58132687D01*
X146440013Y-58091171D01*
X146440015Y-58091168D01*
X146440019Y-58091166D01*
X146584766Y-57946419D01*
X146584768Y-57946415D01*
X146584771Y-57946413D01*
X146637927Y-57873248D01*
X146705087Y-57780810D01*
X146798020Y-57598419D01*
X146861277Y-57403734D01*
X146893300Y-57201552D01*
X146893300Y-56996848D01*
X146870017Y-56849846D01*
X146861277Y-56794665D01*
X146823296Y-56677774D01*
X146798020Y-56599981D01*
X146798018Y-56599978D01*
X146798018Y-56599976D01*
X146764303Y-56533807D01*
X146705087Y-56417590D01*
X146651259Y-56343501D01*
X146584771Y-56251986D01*
X146486620Y-56153835D01*
X151428900Y-56153835D01*
X151428900Y-58044549D01*
X151428901Y-58044565D01*
X151437481Y-58128549D01*
X151439396Y-58147292D01*
X151494553Y-58313747D01*
X151586610Y-58462995D01*
X151710605Y-58586990D01*
X151859853Y-58679047D01*
X152026308Y-58734204D01*
X152129043Y-58744700D01*
X153299756Y-58744699D01*
X153402492Y-58734204D01*
X153568947Y-58679047D01*
X153718195Y-58586990D01*
X153842190Y-58462995D01*
X153934247Y-58313747D01*
X153989404Y-58147292D01*
X153999900Y-58044557D01*
X153999899Y-56638068D01*
X155239400Y-56638068D01*
X155239400Y-56849200D01*
X156201643Y-56849200D01*
X156200319Y-56850524D01*
X156147000Y-56942876D01*
X156119400Y-57045881D01*
X156119400Y-57152519D01*
X156147000Y-57255524D01*
X156200319Y-57347876D01*
X156201643Y-57349200D01*
X155239400Y-57349200D01*
X155239400Y-57560331D01*
X155271041Y-57760105D01*
X155333545Y-57952473D01*
X155425370Y-58132687D01*
X155544259Y-58296322D01*
X155544259Y-58296323D01*
X155687276Y-58439340D01*
X155850912Y-58558229D01*
X156031126Y-58650054D01*
X156223489Y-58712557D01*
X156274400Y-58720620D01*
X156274400Y-57421957D01*
X156275724Y-57423281D01*
X156368076Y-57476600D01*
X156471081Y-57504200D01*
X156577719Y-57504200D01*
X156680724Y-57476600D01*
X156773076Y-57423281D01*
X156774400Y-57421957D01*
X156774400Y-58720619D01*
X156825310Y-58712557D01*
X157017673Y-58650054D01*
X157197887Y-58558229D01*
X157361522Y-58439340D01*
X157361523Y-58439340D01*
X157504540Y-58296323D01*
X157504540Y-58296322D01*
X157623429Y-58132687D01*
X157715254Y-57952473D01*
X157777758Y-57760105D01*
X157809400Y-57560331D01*
X157809400Y-57349200D01*
X156847157Y-57349200D01*
X156848481Y-57347876D01*
X156901800Y-57255524D01*
X156929400Y-57152519D01*
X156929400Y-57045881D01*
X156901800Y-56942876D01*
X156848481Y-56850524D01*
X156847157Y-56849200D01*
X157809400Y-56849200D01*
X157809400Y-56638069D01*
X157809399Y-56638068D01*
X157777758Y-56438294D01*
X157715254Y-56245926D01*
X157623429Y-56065712D01*
X157504540Y-55902077D01*
X157504540Y-55902076D01*
X157361523Y-55759059D01*
X157197887Y-55640170D01*
X157017671Y-55548345D01*
X156825301Y-55485840D01*
X156774400Y-55477778D01*
X156774400Y-56776443D01*
X156773076Y-56775119D01*
X156680724Y-56721800D01*
X156577719Y-56694200D01*
X156471081Y-56694200D01*
X156368076Y-56721800D01*
X156275724Y-56775119D01*
X156274400Y-56776443D01*
X156274400Y-55477778D01*
X156274399Y-55477778D01*
X156223498Y-55485840D01*
X156031128Y-55548345D01*
X155850912Y-55640170D01*
X155687277Y-55759059D01*
X155687276Y-55759059D01*
X155544259Y-55902076D01*
X155544259Y-55902077D01*
X155425370Y-56065712D01*
X155333545Y-56245926D01*
X155271041Y-56438294D01*
X155239400Y-56638068D01*
X153999899Y-56638068D01*
X153999899Y-56153844D01*
X153989404Y-56051108D01*
X153934247Y-55884653D01*
X153842190Y-55735405D01*
X153718195Y-55611410D01*
X153625281Y-55554100D01*
X153568949Y-55519354D01*
X153568944Y-55519352D01*
X153402492Y-55464196D01*
X153299757Y-55453700D01*
X152129050Y-55453700D01*
X152129034Y-55453701D01*
X152026306Y-55464196D01*
X151859855Y-55519352D01*
X151859850Y-55519354D01*
X151710603Y-55611411D01*
X151586611Y-55735403D01*
X151494554Y-55884650D01*
X151494552Y-55884655D01*
X151439396Y-56051107D01*
X151428900Y-56153835D01*
X146486620Y-56153835D01*
X146440013Y-56107228D01*
X146274413Y-55986915D01*
X146274412Y-55986914D01*
X146274410Y-55986913D01*
X146217453Y-55957891D01*
X146092023Y-55893981D01*
X145897334Y-55830722D01*
X145722795Y-55803078D01*
X145695152Y-55798700D01*
X145490448Y-55798700D01*
X145466129Y-55802551D01*
X145288265Y-55830722D01*
X145093576Y-55893981D01*
X144911186Y-55986915D01*
X144745586Y-56107228D01*
X144600828Y-56251986D01*
X144480515Y-56417586D01*
X144387581Y-56599976D01*
X144324322Y-56794665D01*
X144292300Y-56996848D01*
X136733300Y-56996848D01*
X136710017Y-56849846D01*
X136701277Y-56794665D01*
X136663296Y-56677774D01*
X136638020Y-56599981D01*
X136638018Y-56599978D01*
X136638018Y-56599976D01*
X136604303Y-56533807D01*
X136545087Y-56417590D01*
X136491259Y-56343501D01*
X136424771Y-56251986D01*
X136280013Y-56107228D01*
X136114413Y-55986915D01*
X136114412Y-55986914D01*
X136114410Y-55986913D01*
X136057453Y-55957891D01*
X135932023Y-55893981D01*
X135737334Y-55830722D01*
X135562795Y-55803078D01*
X135535152Y-55798700D01*
X135330448Y-55798700D01*
X135306129Y-55802551D01*
X135128265Y-55830722D01*
X134933576Y-55893981D01*
X134751186Y-55986915D01*
X134585586Y-56107228D01*
X134440828Y-56251986D01*
X134320515Y-56417586D01*
X134227581Y-56599976D01*
X134164322Y-56794665D01*
X134132300Y-56996848D01*
X122151001Y-56996848D01*
X122178300Y-56824487D01*
X122178300Y-56611913D01*
X122145046Y-56401957D01*
X122079357Y-56199788D01*
X121982851Y-56010384D01*
X121982849Y-56010381D01*
X121982848Y-56010379D01*
X121857909Y-55838413D01*
X121744369Y-55724873D01*
X121710884Y-55663550D01*
X121715868Y-55593858D01*
X121757740Y-55537925D01*
X121788715Y-55521010D01*
X121920131Y-55471996D01*
X122035346Y-55385746D01*
X122121596Y-55270531D01*
X122171891Y-55135683D01*
X122178300Y-55076073D01*
X122178299Y-53948848D01*
X134132300Y-53948848D01*
X134132300Y-54153551D01*
X134164322Y-54355734D01*
X134227581Y-54550423D01*
X134291491Y-54675853D01*
X134315012Y-54722014D01*
X134320515Y-54732813D01*
X134440828Y-54898413D01*
X134585586Y-55043171D01*
X134740549Y-55155756D01*
X134751190Y-55163487D01*
X134867407Y-55222703D01*
X134933576Y-55256418D01*
X134933578Y-55256418D01*
X134933581Y-55256420D01*
X135037937Y-55290327D01*
X135128265Y-55319677D01*
X135229357Y-55335688D01*
X135330448Y-55351700D01*
X135330449Y-55351700D01*
X135535151Y-55351700D01*
X135535152Y-55351700D01*
X135737334Y-55319677D01*
X135932019Y-55256420D01*
X136114410Y-55163487D01*
X136224652Y-55083392D01*
X136280013Y-55043171D01*
X136280015Y-55043168D01*
X136280019Y-55043166D01*
X136424766Y-54898419D01*
X136424768Y-54898415D01*
X136424771Y-54898413D01*
X136477532Y-54825790D01*
X136545087Y-54732810D01*
X136638020Y-54550419D01*
X136701277Y-54355734D01*
X136733300Y-54153552D01*
X136733300Y-53948848D01*
X144292300Y-53948848D01*
X144292300Y-54153551D01*
X144324322Y-54355734D01*
X144387581Y-54550423D01*
X144451491Y-54675853D01*
X144475012Y-54722014D01*
X144480515Y-54732813D01*
X144600828Y-54898413D01*
X144745586Y-55043171D01*
X144900549Y-55155756D01*
X144911190Y-55163487D01*
X145027407Y-55222703D01*
X145093576Y-55256418D01*
X145093578Y-55256418D01*
X145093581Y-55256420D01*
X145197937Y-55290327D01*
X145288265Y-55319677D01*
X145389357Y-55335688D01*
X145490448Y-55351700D01*
X145490449Y-55351700D01*
X145695151Y-55351700D01*
X145695152Y-55351700D01*
X145897334Y-55319677D01*
X146092019Y-55256420D01*
X146274410Y-55163487D01*
X146384652Y-55083392D01*
X146440013Y-55043171D01*
X146440015Y-55043168D01*
X146440019Y-55043166D01*
X146584766Y-54898419D01*
X146584768Y-54898415D01*
X146584771Y-54898413D01*
X146637532Y-54825790D01*
X146705087Y-54732810D01*
X146798020Y-54550419D01*
X146861277Y-54355734D01*
X146893300Y-54153552D01*
X146893300Y-53948848D01*
X146861277Y-53746666D01*
X146798020Y-53551981D01*
X146798018Y-53551978D01*
X146798018Y-53551976D01*
X146764303Y-53485807D01*
X146705087Y-53369590D01*
X146697356Y-53358949D01*
X146584771Y-53203986D01*
X146440013Y-53059228D01*
X146274413Y-52938915D01*
X146274412Y-52938914D01*
X146274410Y-52938913D01*
X146217453Y-52909891D01*
X146092023Y-52845981D01*
X145897334Y-52782722D01*
X145722795Y-52755078D01*
X145695152Y-52750700D01*
X145490448Y-52750700D01*
X145466129Y-52754551D01*
X145288265Y-52782722D01*
X145093576Y-52845981D01*
X144911186Y-52938915D01*
X144745586Y-53059228D01*
X144600828Y-53203986D01*
X144480515Y-53369586D01*
X144387581Y-53551976D01*
X144324322Y-53746665D01*
X144292300Y-53948848D01*
X136733300Y-53948848D01*
X136701277Y-53746666D01*
X136638020Y-53551981D01*
X136638018Y-53551978D01*
X136638018Y-53551976D01*
X136604303Y-53485807D01*
X136545087Y-53369590D01*
X136537356Y-53358949D01*
X136424771Y-53203986D01*
X136280013Y-53059228D01*
X136114413Y-52938915D01*
X136114412Y-52938914D01*
X136114410Y-52938913D01*
X136057453Y-52909891D01*
X135932023Y-52845981D01*
X135737334Y-52782722D01*
X135562795Y-52755078D01*
X135535152Y-52750700D01*
X135330448Y-52750700D01*
X135306129Y-52754551D01*
X135128265Y-52782722D01*
X134933576Y-52845981D01*
X134751186Y-52938915D01*
X134585586Y-53059228D01*
X134440828Y-53203986D01*
X134320515Y-53369586D01*
X134227581Y-53551976D01*
X134164322Y-53746665D01*
X134132300Y-53948848D01*
X122178299Y-53948848D01*
X122178299Y-53280328D01*
X122171891Y-53220717D01*
X122154276Y-53173490D01*
X122121597Y-53085871D01*
X122121593Y-53085864D01*
X122035347Y-52970655D01*
X122035344Y-52970652D01*
X121920135Y-52884406D01*
X121920128Y-52884402D01*
X121785282Y-52834108D01*
X121785283Y-52834108D01*
X121725683Y-52827701D01*
X121725681Y-52827700D01*
X121725673Y-52827700D01*
X121725664Y-52827700D01*
X119929929Y-52827700D01*
X119929923Y-52827701D01*
X119870316Y-52834108D01*
X119735471Y-52884402D01*
X119735464Y-52884406D01*
X119620255Y-52970652D01*
X119620252Y-52970655D01*
X119534006Y-53085864D01*
X119534002Y-53085871D01*
X119483708Y-53220717D01*
X119477301Y-53280316D01*
X119477301Y-53280323D01*
X119477300Y-53280335D01*
X119067700Y-53280335D01*
X119067700Y-51551500D01*
X119087385Y-51484461D01*
X119140189Y-51438706D01*
X119191700Y-51427500D01*
X173467100Y-51427500D01*
X173534139Y-51447185D01*
G37*
%TD.AperFunction*%
%TD*%
M02*
