M48
; DRILL file {KiCad 9.0.3} date 2026-05-16T13:15:22-0700
; FORMAT={-:-/ absolute / metric / decimal}
; #@! TF.CreationDate,2026-05-16T13:15:22-07:00
; #@! TF.GenerationSoftware,Kicad,Pcbnew,9.0.3
; #@! TF.FileFunction,Plated,1,2,PTH
FMAT,2
METRIC
; #@! TA.AperFunction,Plated,PTH,ViaDrill
T1C0.300
; #@! TA.AperFunction,Plated,PTH,ComponentDrill
T2C0.750
; #@! TA.AperFunction,Plated,PTH,ComponentDrill
T3C0.800
; #@! TA.AperFunction,Plated,PTH,ComponentDrill
T4C0.810
; #@! TA.AperFunction,Plated,PTH,ComponentDrill
T5C0.864
; #@! TA.AperFunction,Plated,PTH,ComponentDrill
T6C1.000
; #@! TA.AperFunction,Plated,PTH,ComponentDrill
T7C1.100
; #@! TA.AperFunction,Plated,PTH,ComponentDrill
T8C2.200
%
G90
G05
T1
X121.031Y-142.621
X123.292Y-93.469
T2
X140.847Y-60.909
X140.847Y-81.89
X145.847Y-60.909
X145.847Y-81.89
T3
X129.59Y-68.174
X131.59Y-68.174
X132.577Y-61.691
X132.577Y-64.191
X135.433Y-54.051
X135.433Y-57.099
X135.433Y-64.719
X135.433Y-67.767
X145.593Y-54.051
X145.593Y-57.099
X145.593Y-64.719
X145.593Y-67.767
X148.463Y-73.279
X148.463Y-78.279
X150.895Y-70.256
X155.895Y-70.256
T4
X152.714Y-57.099
X152.714Y-83.414
X153.354Y-67.259
X153.354Y-73.254
X155.884Y-67.259
X155.884Y-73.254
X156.524Y-57.099
X156.524Y-83.414
T5
X137.505Y-70.764
X137.505Y-78.384
X140.045Y-70.764
X140.045Y-78.384
X142.585Y-70.764
X142.585Y-78.384
X145.125Y-70.764
X145.125Y-78.384
T6
X120.828Y-54.178
X120.828Y-56.718
X120.828Y-59.258
X120.828Y-61.798
X120.828Y-64.338
X133.847Y-81.919
X133.847Y-84.419
X133.847Y-86.919
X171.602Y-54.204
X171.602Y-56.744
X171.602Y-59.284
X171.602Y-61.824
X171.602Y-64.364
X171.653Y-69.464
X171.653Y-72.004
T7
X123.19Y-96.52
X123.19Y-99.06
X123.19Y-101.6
X123.19Y-104.14
X123.19Y-106.68
X123.19Y-109.22
X123.19Y-111.76
X123.19Y-114.3
X123.19Y-116.84
X123.19Y-119.38
X123.19Y-121.92
X123.19Y-124.46
X123.19Y-127.0
X123.19Y-129.54
X123.19Y-132.08
X123.19Y-134.62
X123.19Y-137.16
X123.19Y-139.7
X123.19Y-142.24
X123.19Y-144.78
X125.73Y-96.52
X125.73Y-99.06
X125.73Y-101.6
X125.73Y-104.14
X125.73Y-106.68
X125.73Y-109.22
X125.73Y-111.76
X125.73Y-114.3
X125.73Y-116.84
X125.73Y-119.38
X125.73Y-121.92
X125.73Y-124.46
X125.73Y-127.0
X125.73Y-129.54
X125.73Y-132.08
X125.73Y-134.62
X125.73Y-137.16
X125.73Y-139.7
X125.73Y-142.24
X125.73Y-144.78
X128.27Y-96.52
X128.27Y-99.06
X128.27Y-101.6
X128.27Y-104.14
X128.27Y-106.68
X128.27Y-109.22
X128.27Y-111.76
X128.27Y-114.3
X128.27Y-116.84
X128.27Y-119.38
X128.27Y-121.92
X128.27Y-124.46
X128.27Y-127.0
X128.27Y-129.54
X128.27Y-132.08
X128.27Y-134.62
X128.27Y-137.16
X128.27Y-139.7
X128.27Y-142.24
X128.27Y-144.78
X130.81Y-96.52
X130.81Y-99.06
X130.81Y-101.6
X130.81Y-104.14
X130.81Y-106.68
X130.81Y-109.22
X130.81Y-111.76
X130.81Y-114.3
X130.81Y-116.84
X130.81Y-119.38
X130.81Y-121.92
X130.81Y-124.46
X130.81Y-127.0
X130.81Y-129.54
X130.81Y-132.08
X130.81Y-134.62
X130.81Y-137.16
X130.81Y-139.7
X130.81Y-142.24
X130.81Y-144.78
X133.35Y-96.52
X133.35Y-99.06
X133.35Y-101.6
X133.35Y-104.14
X133.35Y-106.68
X133.35Y-109.22
X133.35Y-111.76
X133.35Y-114.3
X133.35Y-116.84
X133.35Y-119.38
X133.35Y-121.92
X133.35Y-124.46
X133.35Y-127.0
X133.35Y-129.54
X133.35Y-132.08
X133.35Y-134.62
X133.35Y-137.16
X133.35Y-139.7
X133.35Y-142.24
X133.35Y-144.78
X135.89Y-96.52
X135.89Y-99.06
X135.89Y-101.6
X135.89Y-104.14
X135.89Y-106.68
X135.89Y-109.22
X135.89Y-111.76
X135.89Y-114.3
X135.89Y-116.84
X135.89Y-119.38
X135.89Y-121.92
X135.89Y-124.46
X135.89Y-127.0
X135.89Y-129.54
X135.89Y-132.08
X135.89Y-134.62
X135.89Y-137.16
X135.89Y-139.7
X135.89Y-142.24
X135.89Y-144.78
X138.43Y-96.52
X138.43Y-99.06
X138.43Y-101.6
X138.43Y-104.14
X138.43Y-106.68
X138.43Y-109.22
X138.43Y-111.76
X138.43Y-114.3
X138.43Y-116.84
X138.43Y-119.38
X138.43Y-121.92
X138.43Y-124.46
X138.43Y-127.0
X138.43Y-129.54
X138.43Y-132.08
X138.43Y-134.62
X138.43Y-137.16
X138.43Y-139.7
X138.43Y-142.24
X138.43Y-144.78
X140.97Y-96.52
X140.97Y-99.06
X140.97Y-101.6
X140.97Y-104.14
X140.97Y-106.68
X140.97Y-109.22
X140.97Y-111.76
X140.97Y-114.3
X140.97Y-116.84
X140.97Y-119.38
X140.97Y-121.92
X140.97Y-124.46
X140.97Y-127.0
X140.97Y-129.54
X140.97Y-132.08
X140.97Y-134.62
X140.97Y-137.16
X140.97Y-139.7
X140.97Y-142.24
X140.97Y-144.78
X143.51Y-96.52
X143.51Y-99.06
X143.51Y-101.6
X143.51Y-104.14
X143.51Y-106.68
X143.51Y-109.22
X143.51Y-111.76
X143.51Y-114.3
X143.51Y-116.84
X143.51Y-119.38
X143.51Y-121.92
X143.51Y-124.46
X143.51Y-127.0
X143.51Y-129.54
X143.51Y-132.08
X143.51Y-134.62
X143.51Y-137.16
X143.51Y-139.7
X143.51Y-142.24
X143.51Y-144.78
X146.05Y-96.52
X146.05Y-99.06
X146.05Y-101.6
X146.05Y-104.14
X146.05Y-106.68
X146.05Y-109.22
X146.05Y-111.76
X146.05Y-114.3
X146.05Y-116.84
X146.05Y-119.38
X146.05Y-121.92
X146.05Y-124.46
X146.05Y-127.0
X146.05Y-129.54
X146.05Y-132.08
X146.05Y-134.62
X146.05Y-137.16
X146.05Y-139.7
X146.05Y-142.24
X146.05Y-144.78
X148.59Y-96.52
X148.59Y-99.06
X148.59Y-101.6
X148.59Y-104.14
X148.59Y-106.68
X148.59Y-109.22
X148.59Y-111.76
X148.59Y-114.3
X148.59Y-116.84
X148.59Y-119.38
X148.59Y-121.92
X148.59Y-124.46
X148.59Y-127.0
X148.59Y-129.54
X148.59Y-132.08
X148.59Y-134.62
X148.59Y-137.16
X148.59Y-139.7
X148.59Y-142.24
X148.59Y-144.78
X151.13Y-96.52
X151.13Y-99.06
X151.13Y-101.6
X151.13Y-104.14
X151.13Y-106.68
X151.13Y-109.22
X151.13Y-111.76
X151.13Y-114.3
X151.13Y-116.84
X151.13Y-119.38
X151.13Y-121.92
X151.13Y-124.46
X151.13Y-127.0
X151.13Y-129.54
X151.13Y-132.08
X151.13Y-134.62
X151.13Y-137.16
X151.13Y-139.7
X151.13Y-142.24
X151.13Y-144.78
X153.67Y-96.52
X153.67Y-99.06
X153.67Y-101.6
X153.67Y-104.14
X153.67Y-106.68
X153.67Y-109.22
X153.67Y-111.76
X153.67Y-114.3
X153.67Y-116.84
X153.67Y-119.38
X153.67Y-121.92
X153.67Y-124.46
X153.67Y-127.0
X153.67Y-129.54
X153.67Y-132.08
X153.67Y-134.62
X153.67Y-137.16
X153.67Y-139.7
X153.67Y-142.24
X153.67Y-144.78
X156.21Y-96.52
X156.21Y-99.06
X156.21Y-101.6
X156.21Y-104.14
X156.21Y-106.68
X156.21Y-109.22
X156.21Y-111.76
X156.21Y-114.3
X156.21Y-116.84
X156.21Y-119.38
X156.21Y-121.92
X156.21Y-124.46
X156.21Y-127.0
X156.21Y-129.54
X156.21Y-132.08
X156.21Y-134.62
X156.21Y-137.16
X156.21Y-139.7
X156.21Y-142.24
X156.21Y-144.78
X158.75Y-96.52
X158.75Y-99.06
X158.75Y-101.6
X158.75Y-104.14
X158.75Y-106.68
X158.75Y-109.22
X158.75Y-111.76
X158.75Y-114.3
X158.75Y-116.84
X158.75Y-119.38
X158.75Y-121.92
X158.75Y-124.46
X158.75Y-127.0
X158.75Y-129.54
X158.75Y-132.08
X158.75Y-134.62
X158.75Y-137.16
X158.75Y-139.7
X158.75Y-142.24
X158.75Y-144.78
X161.29Y-96.52
X161.29Y-99.06
X161.29Y-101.6
X161.29Y-104.14
X161.29Y-106.68
X161.29Y-109.22
X161.29Y-111.76
X161.29Y-114.3
X161.29Y-116.84
X161.29Y-119.38
X161.29Y-121.92
X161.29Y-124.46
X161.29Y-127.0
X161.29Y-129.54
X161.29Y-132.08
X161.29Y-134.62
X161.29Y-137.16
X161.29Y-139.7
X161.29Y-142.24
X161.29Y-144.78
X163.83Y-96.52
X163.83Y-99.06
X163.83Y-101.6
X163.83Y-104.14
X163.83Y-106.68
X163.83Y-109.22
X163.83Y-111.76
X163.83Y-114.3
X163.83Y-116.84
X163.83Y-119.38
X163.83Y-121.92
X163.83Y-124.46
X163.83Y-127.0
X163.83Y-129.54
X163.83Y-132.08
X163.83Y-134.62
X163.83Y-137.16
X163.83Y-139.7
X163.83Y-142.24
X163.83Y-144.78
X166.37Y-96.52
X166.37Y-99.06
X166.37Y-101.6
X166.37Y-104.14
X166.37Y-106.68
X166.37Y-109.22
X166.37Y-111.76
X166.37Y-114.3
X166.37Y-116.84
X166.37Y-119.38
X166.37Y-121.92
X166.37Y-124.46
X166.37Y-127.0
X166.37Y-129.54
X166.37Y-132.08
X166.37Y-134.62
X166.37Y-137.16
X166.37Y-139.7
X166.37Y-142.24
X166.37Y-144.78
X168.91Y-96.52
X168.91Y-99.06
X168.91Y-101.6
X168.91Y-104.14
X168.91Y-106.68
X168.91Y-109.22
X168.91Y-111.76
X168.91Y-114.3
X168.91Y-116.84
X168.91Y-119.38
X168.91Y-121.92
X168.91Y-124.46
X168.91Y-127.0
X168.91Y-129.54
X168.91Y-132.08
X168.91Y-134.62
X168.91Y-137.16
X168.91Y-139.7
X168.91Y-142.24
X168.91Y-144.78
X171.45Y-96.52
X171.45Y-99.06
X171.45Y-101.6
X171.45Y-104.14
X171.45Y-106.68
X171.45Y-109.22
X171.45Y-111.76
X171.45Y-114.3
X171.45Y-116.84
X171.45Y-119.38
X171.45Y-121.92
X171.45Y-124.46
X171.45Y-127.0
X171.45Y-129.54
X171.45Y-132.08
X171.45Y-134.62
X171.45Y-137.16
X171.45Y-139.7
X171.45Y-142.24
X171.45Y-144.78
T8
X126.847Y-80.019
X126.847Y-88.819
M30
